<svg xmlns="http://www.w3.org/2000/svg" width="512" height="512"><path data-original="#A3B1C4" fill="#a3b1c4" d="M0 241h121v30H0z"/><path data-original="#8799B3" fill="#8799b3" d="M391 241h121v30H391z"/><path data-original="#A3B1C4" fill="#a3b1c4" d="M241 421h30v91h-30z"/><path data-original="#8799B3" fill="#8799b3" d="M256 421h15v91h-15z"/><path d="M256 436c-74.541 0-150-22.327-150-65V142h300v229c0 42.673-75.459 65-150 65z" data-original="#E4187A" data-old_color="#009c9e" fill="#009c9e"/><path d="M256 142v294c74.541 0 150-22.327 150-65V142H256z" data-original="#880E48" data-old_color="#005e59" fill="#005e59"/><path d="M256 206c-74.541 0-150-22.327-150-65s75.459-65 150-65 150 22.327 150 65-75.459 65-150 65z" data-original="#FF728B" data-old_color="#49b2a1" fill="#49b2a1"/><path d="M208.1 309.098l3.982 29.734c9.394-1.258 19.217-2.108 29.197-2.526l-1.256-29.974c-10.887.457-21.628 1.387-31.923 2.766zM144.713 325.952l12.496 27.273c7.496-3.434 16.387-6.463 26.428-9.002l-7.355-29.084c-11.802 2.984-22.423 6.622-31.569 10.813z" data-original="#F7AFD1" data-old_color="#49b2a1" fill="#49b2a1"/><path d="M270.701 336.306c9.979.417 19.803 1.267 29.199 2.524l3.98-29.734c-10.296-1.378-21.038-2.308-31.925-2.764l-1.254 29.974zM335.701 315.134l-7.354 29.085c10.042 2.539 18.935 5.567 26.431 9.001l12.493-27.275c-9.146-4.19-19.768-7.827-31.57-10.811z" data-original="#F072AE" data-old_color="#49b2a1" fill="#49b2a1"/><path d="M362 512v-30c34.326 0 66.377-4.869 90.25-13.711C474.077 460.205 482 451.128 482 447h30c0 42.673-75.459 65-150 65z" data-original="#243145" fill="#243145"/><path data-original="#121924" fill="#121924" d="M512 512h-30v-50h-50v-30h80z"/><path d="M30 65H0C0 22.327 75.459 0 150 0v30c-34.326 0-66.377 4.869-90.25 13.711C37.923 51.795 30 60.872 30 65z" data-original="#466288" fill="#466288"/><path data-original="#243145" fill="#243145" d="M80 80H0V0h30v50h50z"/><path d="M256 76v130c74.541 0 150-22.327 150-65s-75.459-65-150-65z" data-original="#EA348B" class="active-path" data-old_color="#00a79e" fill="#00a79e"/><path data-original="#A3B1C4" fill="#a3b1c4" d="M241 0h30v141h-30z"/><path data-original="#8799B3" fill="#8799b3" d="M256 0h15v141h-15z"/></svg>