<svg version="1.1" id="Capa_1" xmlns="http://www.w3.org/2000/svg" x="0" y="0" viewBox="-41 164.9 512 512" xml:space="preserve"><style>.st0{fill:#466288}.st1{fill:#243145}.st3{fill:#49b2a1}.st4{fill:#009c9e}.st5{fill:#a3b1c4}.st8{fill:#8799b3}.st9{fill:#fff}.st11{fill:#bfbfbf}.st12{opacity:.2}.st13{fill:#a9cae0}.st14{fill:#e54d33}</style><path class="st0" d="M35.3 604.4h363.8v25H35.3z"/><path class="st1" d="M217.3 604.4h181.8v25H217.3z"/><path fill="#bab325" d="M198.7 178.8h8.7v238.3h-8.7z"/><path class="st3" d="M22 626.8h388v39.3H22zM-32.7 177.9H464v39.3H-32.7z"/><path class="st4" d="M216.7 177.9H464v39.3H216.7z"/><path class="st5" d="M-32.7 445.8H464v8.7H-32.7z"/><path class="st4" d="M-32.4 216.8H16v449.3h-48.4z"/><path fill="#005e59" d="M217.3 626.8H410v39.3H217.3z"/><path fill="#00a79e" d="M416 216.8h48.3v449.3H416z"/><g id="Capa_3"><path class="st5" d="M217 495.4c-6.2 0-11.2-5-11.2-11.2V473h22.3v11.2c0 6.2-5 11.2-11.1 11.2z"/><path class="st8" d="M217 473.1v22.3c6.2 0 11.2-5 11.2-11.2V473H217z"/><path class="st0" d="M229.7 481.5h-25.6l-8.4-25.1H238l-8.3 25.1z"/><path class="st1" d="M217 481.5h12.8l8.4-25.1H217v25.1z"/><path class="st0" d="M217.6 436.8h-29.2l4-27.9h21.2l4 27.9z"/><path class="st5" d="M254.6 464.7h-75.3v-36.3h75.3v36.3z"/><path class="st8" d="M217 428.5h37.7v36.3H217v-36.3z"/></g><g id="Capa_2"><circle class="st9" cx="379.5" cy="242.8" r="56"/><g opacity=".31"><g id="Thermometer_hot_1_"><path class="st11" d="M388.2 551c20.3 8.9 33 35 32.8 54.9-.4 50-96.4 76.1-104.9-4.6-1.4-13.3 6-34.6 26.1-47.4 11.9-7.6 2.8-143.8 6-164.8 1.2-7.8-1.4-45.5 14.8-46.4 17.8-.9 16.9 48.8 17.5 60.5 1 18.4-.4 36.9.6 55.3 1.7 32-.3 89.3 7.1 92.5z"/><path class="st11" d="M382.1 560.4c16 7 30.3 29 28.1 44.5-6.6 47.7-74.7 59.7-84.7 2.9-2.2-12.7 5.5-34.6 24.8-46.1 9.6-5.7 2.7-137.6 3-156.9l21.9-1.5c0 21.2 1 154.5 6.9 157.1zM335.3 516c-4.1-3.1-9.8-1.9-14.7-1.8-5.7.1-11.3 0-16.9.9-1.8.3-1.8 3.2 0 3.5 5.6.9 11.3.8 16.9.9 4.9.1 10.6 1.3 14.7-1.8.6-.4.6-1.2 0-1.7zM335.4 493.8c-2-1.8-5.1-1.1-7.6-1-3.5.1-7.1-.1-10.6.5-1.5.3-1.5 2.7 0 3 3.1.6 6.3.4 9.4.5 2.8 0 6.6 1 8.8-1 .5-.6.5-1.5 0-2zM334 472c-4.1-3.1-9.8-1.9-14.7-1.8-5.7.1-11.4 0-16.9.9-1.8.3-1.8 3.2 0 3.5 5.6.9 11.3.8 16.9.9 4.9.1 10.5 1.3 14.7-1.8.6-.3.6-1.2 0-1.7zM334.1 449.9c-2-1.8-5.1-1.1-7.6-1-3.5.1-7.1-.1-10.6.5-1.5.3-1.5 2.7 0 3 3.1.5 6.3.4 9.4.5 2.8 0 6.6 1 8.8-1 .5-.7.5-1.6 0-2zM332.6 428.1c-4.1-3.1-9.8-1.9-14.7-1.8-5.7.1-11.3 0-16.9.9-1.8.3-1.8 3.2 0 3.5 5.6.9 11.3.8 16.9.9 4.9.1 10.6 1.3 14.7-1.8.7-.4.7-1.2 0-1.7zM332.8 405.9c-2-1.8-5.1-1.1-7.6-1-3.5.1-7.1-.2-10.6.5-1.5.3-1.5 2.7 0 3 3.1.6 6.3.4 9.4.5 2.8 0 6.6 1 8.8-1 .5-.6.5-1.5 0-2z"/><g><g class="st12"><path class="st11" d="M356.7 621.4c-11.2-14.3-7.6-32-2.1-47.5 10.4-29.5 12-63.2 8.7-95.9-3.4-33.7-5.9-68.3-4.2-102.3.6-11.9 2.4-22.3 5.8-32.8-.6-.1-1.2-.1-1.8-.1-16.2.9-13.7 38.5-14.8 46.4-3.2 21 5.9 157.2-6 164.8-20.1 12.8-27.5 34.1-26.1 47.4 5.3 50 44 59 72.9 46.8-11.9-7.7-24.2-16.4-32.4-26.8z"/></g></g></g><path class="st11" d="M427.9 246.6c-9.3-27.3-37.2-61-86.9-42.6-28.4 10.6-36.3 46.6-34.9 65.3 2.8 35.9 46.2 60.6 79 53.3 33.3-7.4 53.7-43.9 42.8-76zm-80.5-9.1c-1.5 4.6-7.8 6.3-12 5.1-2.4-.7-4.8-2.5-5.2-5.1-1.3-6.8 5.5-10 7.6-10.2 2.1-.2 3.9.2 5.7 1.2 2.9 1.8 5 5.6 3.9 9zm55.6 53.1c-4 12.6-19.4 15.4-30.9 12.8-11.3-2.5-21.1-10.6-24.8-21.6-7.8-22.9 26.4-57.6 46.8-38.2 3 2.9-1.1 7.1-4.4 6-10.7-3.4-19.7.8-27.4 8.8-6.2 6.4-8.6 16.2-3.7 24.1 4.2 6.7 12.1 11.4 20.1 11.6 7.9.2 13.7-4 20.6-7.2 2.3-1 4.4 1.5 3.7 3.7z" id="Ñelsius_2_"/></g><g id="Thermometer_hot_2_"><path class="st13" d="M401.2 533.1c-7.4-3.2-5.4-60.5-7.1-92.6-1-18.4.4-36.9-.6-55.3-.6-11.7.3-61.4-17.5-60.5-16.2.9-13.7 38.5-14.8 46.4-3.2 21 5.9 157.2-6 164.8-20.1 12.8-27.5 34.1-26.1 47.4 8.5 80.7 104.5 54.7 104.9 4.6.1-19.7-12.5-45.9-32.8-54.8z"/><path class="st14" d="M395.1 542.5c-5.9-2.5-6.9-135.9-6.9-157.1l-21.9 1.5c-.3 19.3 6.5 151.2-3 156.9-19.2 11.4-27 33.4-24.8 46.1 9.9 56.8 78 44.8 84.7-2.9 2.1-15.5-12.1-37.5-28.1-44.5z"/><path class="st13" d="M333.6 496.4c-5.7.1-11.3 0-16.9.9-1.8.3-1.8 3.2 0 3.5 5.6.9 11.3.8 16.9.9 4.9.1 10.6 1.3 14.7-1.8.7-.5.7-1.3 0-1.8-4.2-3-9.9-1.8-14.7-1.7zM340.7 474.9c-3.5.1-7.1-.1-10.6.5-1.5.3-1.5 2.7 0 3 3.1.6 6.3.4 9.4.5 2.8 0 6.6 1 8.8-1 .5-.5.5-1.4 0-1.8-2-2-5-1.2-7.6-1.2zM332.2 452.4c-5.7.1-11.4 0-16.9.9-1.8.3-1.8 3.2 0 3.5 5.6.9 11.3.8 16.9.9 4.9.1 10.5 1.3 14.7-1.8.7-.5.7-1.3 0-1.8-4.1-3-9.8-1.8-14.7-1.7zM339.4 431c-3.5.1-7.1-.1-10.6.5-1.5.3-1.5 2.7 0 3 3.1.5 6.3.4 9.4.5 2.8 0 6.6 1 8.8-1 .5-.5.5-1.4 0-1.8-2-2-5-1.3-7.6-1.2zM330.9 408.5c-5.7.1-11.3 0-16.9.9-1.8.3-1.8 3.2 0 3.5 5.6.9 11.3.8 16.9.9 4.9.1 10.6 1.3 14.7-1.8.7-.5.7-1.3 0-1.8-4.1-3-9.8-1.8-14.7-1.7zM338.1 387c-3.5.1-7.1-.2-10.6.5-1.5.3-1.5 2.7 0 3 3.1.6 6.3.4 9.4.5 2.8 0 6.6 1 8.8-1 .5-.5.5-1.4 0-1.8-2-2-5.1-1.2-7.6-1.2z"/><g class="st12"><path class="st9" d="M369.6 603.5c-11.2-14.3-7.6-32.1-2.1-47.5 10.4-29.5 12-63.2 8.7-95.9-3.4-33.7-5.9-68.3-4.2-102.3.6-11.9 2.4-22.3 5.8-32.8-.6-.1-1.1-.1-1.8-.1-16.2.9-13.7 38.5-14.8 46.4-3.2 21 5.9 157.2-6 164.8-20.1 12.8-27.5 34.1-26.1 47.4 5.3 50 44 59 72.9 46.8-11.9-7.6-24.2-16.3-32.4-26.8z"/></g></g><path class="st14" d="M354 186.2c-28.4 10.6-36.3 46.6-34.9 65.3 2.8 35.9 46.2 60.6 79 53.3 33.2-7.5 53.6-44 42.7-76-9.3-27.3-37.1-61-86.8-42.6zm-5.7 38.6c-2.4-.7-4.8-2.5-5.2-5.1-1.3-6.8 5.5-10 7.6-10.2 2.1-.2 3.9.2 5.7 1.2 3.1 1.7 5.1 5.5 4 8.9-1.6 4.7-7.9 6.3-12.1 5.2zm67.6 48c-4 12.6-19.4 15.4-30.9 12.8-11.3-2.5-21.1-10.6-24.8-21.6-7.8-22.9 26.4-57.6 46.8-38.2 3 2.9-1.1 7.1-4.4 6-10.7-3.4-19.7.8-27.4 8.8-6.2 6.4-8.6 16.2-3.7 24.1 4.2 6.7 12.1 11.4 20.1 11.6 7.9.2 13.7-4 20.6-7.2 2.3-1 4.5 1.4 3.7 3.7z" id="Ñelsius_1_"/></g></svg>