<svg xmlns="http://www.w3.org/2000/svg" width="512" height="512"><path data-original="#E4187A" class="active-path" data-old_color="#009c9e" fill="#009c9e" d="M241 85h30v45h-30z"/><path data-original="#880E48" data-old_color="#005e59" fill="#005e59" d="M256 85h15v45h-15z"/><path data-original="#243145" fill="#243145" d="M15 30h201v30H15z"/><path data-original="#121924" fill="#121924" d="M296 30h201v30H296z"/><path data-original="#466288" fill="#466288" d="M0 0h30v407H0z"/><path data-original="#243145" fill="#243145" d="M482 0h30v407h-30z"/><path d="M90 512H0V392h90v120z" data-original="#A3B1C4" fill="#a3b1c4"/><path d="M359.575 512H271V382h101.575l-13 130z" data-original="#AA6100" fill="#aa6100"/><path d="M391 412H281V262h65c24.813 0 45 20.187 45 45v105z" data-original="#EE8700" fill="#ee8700"/><path d="M299.575 512h-87.149l-13-130h113.149l-13 130z" data-original="#FFDE55" fill="#ffde55"/><path data-original="#FF9811" fill="#ff9811" d="M256 512h43.575l13-130H256z"/><path d="M331 412H181V307c0-24.813 20.187-45 45-45h60c24.813 0 45 20.187 45 45v105z" data-original="#FFF5CC" fill="#fff5cc"/><path d="M512 512h-90V392h90v120z" data-original="#BEC8D6" fill="#bec8d6"/><path d="M331 307c0-24.813-20.187-45-45-45h-30v150h75V307z" data-original="#FFC477" fill="#ffc477"/><path d="M256 292c-33.084 0-60-26.916-60-60s26.916-60 60-60 60 26.916 60 60-26.916 60-60 60z" data-original="#FFDE55" fill="#ffde55"/><path data-original="#466288" fill="#466288" d="M0 482h512v30H0z"/><path d="M276 100h-40c-19.299 0-35-15.701-35-35V0h110v65c0 19.299-15.701 35-35 35z" data-original="#FF728B" data-old_color="#49b2a1" fill="#49b2a1"/><path d="M316 292h-60V172h60c33.084 0 60 26.916 60 60s-26.916 60-60 60z" data-original="#AA6100" fill="#aa6100"/><path d="M316 232c0-33.084-26.916-60-60-60v120c33.084 0 60-26.916 60-60z" data-original="#FF9811" fill="#ff9811"/><path data-original="#243145" fill="#243145" d="M256 482h256v30H256z"/><path d="M256 0v100h20c19.299 0 35-15.701 35-35V0h-55z" data-original="#EA348B" data-old_color="#00a79e" fill="#00a79e"/></svg>