<svg xmlns="http://www.w3.org/2000/svg" viewBox="-41 164.9 512 512"><style>.st1{fill:#dae0e7}.st6{fill:#dae1e8}.st7{fill:#2c3540}.st8{fill:none}.st9{fill:#616e7d}</style><g id="Capa_1"><path d="M372.2 556.9H57.8L19 518.1V263.7l38.8-38.8h314.4l38.8 38.8v254.4l-38.8 38.8z" fill="#fff"/><path class="st1" d="M372.2 224.9H215v332h157.2l38.8-38.8V263.7l-38.8-38.8z"/><path d="M201.5 556.9v-337c0-30.3 24.7-55 55-55h38v30h-38c-13.8 0-25 11.2-25 25v337h-30z" fill="#009c9e"/><path d="M215 332.6l-55-41.3v-66.5h110v66.5l-55 41.3z" fill="#49b2a1"/><path d="M270 291.4v-66.5h-55v107.8l55-41.3z" fill="#005e59"/><path class="st1" d="M372.2 556.9H57.8L19 518.1V263.7l38.8-38.8h314.4l38.8 38.8v254.4l-38.8 38.8zm-302-30h289.6l21.2-21.2V276.1l-21.2-21.2H70.2L49 276.1v229.6l21.2 21.2z"/><path d="M215 224.9v30h144.8l21.2 21.2v229.6l-21.2 21.2H215v30h157.2l38.8-38.8V263.7l-38.8-38.8H215z" fill="#bec8d6"/><path class="st6" d="M194.3 483.4h42.8v106.5h-42.8z"/><path class="st6" d="M202.7 546.5h26.2v93.1h-26.2z"/><path class="st7" d="M219.4 676.9l9.5-37.3h-26.2l9.4 37.3zM171.8 568.2h87.8v43.4h-87.8z"/></g><g id="Capa_3"><path class="st8" d="M123.8 354c-17.4 1.6-30.2 16.9-28.6 34.3 1.6 17.4 17 30.2 34.3 28.6 17.4-1.6 30.2-16.9 28.6-34.3-1.6-17.4-16.9-30.2-34.3-28.6zM292.2 427.4c-12.3 7.7-16.6 24.4-9.4 37 7.7 13.5 24.9 17.9 38.1 10 13.1-7.8 17.4-24.7 9.5-37.8-7.8-13.1-25.1-17.4-38.2-9.2z"/><path class="st9" d="M199.3 409.6c1.9-5.8 3.2-11.8 3.7-18l-12.4-6c0-2-.1-4-.3-6.1-.1-.7-.2-1.4-.2-2.1l11.6-7.4c-1.2-6.1-3.2-12-5.8-17.4l-13.8 1.1c-1.4-2.4-2.9-4.7-4.5-6.8l6.4-12.2c-4.1-4.6-8.7-8.7-13.7-12.2l-11.4 7.8c-2.3-1.4-4.8-2.6-7.3-3.7l-.6-13.8c-5.8-1.9-11.8-3.2-18-3.7l-6 12.4c-2 0-4 .1-6.1.3-.7.1-1.4.2-2.1.2l-7.4-11.7c-6.1 1.2-12 3.2-17.4 5.8l1.1 13.8c-2.4 1.4-4.7 2.9-6.8 4.5L76.1 328c-4.6 4.1-8.7 8.7-12.2 13.8l7.8 11.4c-1.4 2.4-2.6 4.8-3.7 7.3l-14 .6c-1.9 5.8-3.2 11.8-3.7 18l12.4 6c0 2 .1 4 .3 6.1l.3 2.1-11.7 7.4c1.3 6.1 3.2 12 5.8 17.4l13.8-1.1c1.4 2.4 2.9 4.7 4.5 6.8L69.3 436c4.1 4.6 8.7 8.7 13.7 12.2l11.4-7.8c2.4 1.4 4.8 2.6 7.3 3.7l.6 13.8c5.8 1.9 11.8 3.2 18 3.7l6-12.4c2 0 4-.1 6.1-.3.7-.1 1.4-.2 2.1-.2l7.4 11.7c6.1-1.3 12-3.2 17.4-5.8l-1.1-13.8c2.4-1.4 4.7-2.9 6.8-4.5l12.2 6.4c4.6-4.1 8.7-8.7 12.2-13.7l-7.8-11.4c1.4-2.4 2.6-4.8 3.7-7.3l14-.7zm-72.5 20.8c-24.8.1-45.1-20-45.2-44.8-.1-24.8 20-45.1 44.8-45.2 24.8-.1 45.1 20 45.2 44.8.2 24.8-20 45.1-44.8 45.2z"/><path class="st9" d="M84.9 385.6c.1 23 18.9 41.7 42 41.6 23-.1 41.7-18.9 41.6-42-.1-23-18.9-41.7-42-41.6-23.1.1-41.7 18.9-41.6 42zm73.2-3.1c1.6 17.4-11.2 32.7-28.6 34.3-17.4 1.6-32.7-11.2-34.3-28.6-1.6-17.4 11.2-32.7 28.6-34.3 17.4-1.5 32.7 11.3 34.3 28.6zM261.5 450.8c-.4 24.9 19.5 45.5 44.4 46 24.9.4 45.5-19.5 46-44.4.4-24.9-19.5-45.5-44.4-46-25-.5-45.6 19.5-46 44.4zm69-14.1c7.8 13.1 3.5 30-9.5 37.8-13.3 7.9-30.4 3.4-38.1-10-7.2-12.6-3-29.3 9.4-37 13-8.3 30.3-4 38.2 9.2z"/><path class="st9" d="M379.4 458.4c.5-5.3.4-10.6-.2-15.9l-12.3-2.9c-.7-3.2-1.6-6.4-2.7-9.6l9-8.9c-1.1-2.4-2.3-4.7-3.7-7-1.4-2.3-2.8-4.5-4.4-6.6l-12.1 3.7c-2.2-2.5-4.6-4.9-7.1-7l3.3-12.2c-4.4-3.1-9-5.7-13.9-7.7l-8.7 9.2c-3.1-1.1-6.4-1.9-9.6-2.4l-3.3-12.3c-5.2-.5-10.6-.4-15.8.3l-2.9 12.3c-3.2.6-6.4 1.6-9.6 2.7l-8.9-9c-2.4 1.1-4.7 2.3-7 3.7-2.3 1.4-4.5 2.9-6.6 4.4l3.7 12.1c-2.5 2.2-4.9 4.6-7 7.1l-12.2-3.3c-3.1 4.3-5.7 9-7.7 13.8l9.2 8.7c-1.1 3.1-1.9 6.4-2.4 9.6l-12.2 3.3c-.5 5.2-.4 10.6.2 15.8l12.3 2.9c.6 3.2 1.6 6.4 2.7 9.6l-9 8.9c1.1 2.4 2.3 4.7 3.7 7 1.4 2.3 2.9 4.5 4.4 6.6l12.1-3.7c2.2 2.5 4.6 4.9 7.1 6.9l-3.3 12.2c4.3 3.1 9 5.7 13.8 7.7l8.7-9.2c3.2 1.1 6.3 1.9 9.6 2.4l3.3 12.3c5.2.5 10.6.4 15.8-.2l2.9-12.3c3.2-.6 6.4-1.6 9.6-2.7l9 9c2.4-1.1 4.7-2.3 7-3.7 2.3-1.4 4.5-2.9 6.6-4.4l-3.7-12.1c2.5-2.2 4.9-4.6 7-7.1l12.2 3.3c3.1-4.3 5.7-9 7.7-13.8l-9.2-8.7c1.1-3.1 1.9-6.3 2.4-9.6l12.2-3.2zm-73.5 40.3c-26-.4-46.8-22-46.3-48 .4-26 21.9-46.8 48-46.4 26 .4 46.8 22 46.4 48-.6 26.1-22.1 46.9-48.1 46.4z"/><path d="M81.6 385.6c.1 24.8 20.4 44.9 45.2 44.8 24.8-.1 44.9-20.4 44.8-45.2-.1-24.8-20.4-44.9-45.2-44.8-24.7.1-44.9 20.4-44.8 45.2zm86.8-.4c.1 23-18.6 41.9-41.6 42-23.1.1-41.9-18.6-42-41.6-.1-23 18.6-41.9 41.6-42 23.1-.1 41.9 18.6 42 41.6z" fill="#aad4c8"/><path d="M259.6 450.8c-.4 26 20.3 47.5 46.3 48 26 .4 47.5-20.3 48-46.4.4-26-20.4-47.5-46.4-48-26-.4-47.5 20.4-47.9 46.4zm92.3 1.5c-.4 24.9-21 44.9-46 44.4-24.9-.4-44.9-21-44.4-46 .4-24.9 21-44.9 46-44.4 24.9.5 44.8 21.1 44.4 46z" fill="#82bfab"/></g></svg>