<svg xmlns="http://www.w3.org/2000/svg" viewBox="-41 164.9 512 512"><style>.st0{fill:#fff}.st6{fill:#2c3540}.st8{fill:#bfbfbf}.st9{opacity:.2}.st10{fill:#a9cae0}.st11{fill:#e54d33}</style><g id="Capa_1"><path class="st0" d="M372.2 556.9H57.8L19 518.1V263.7l38.8-38.8h314.4l38.8 38.8v254.4l-38.8 38.8z"/><path d="M372.2 224.9H215v332h157.2l38.8-38.8V263.7l-38.8-38.8z" fill="#005e59"/><path d="M21.2 263.7v254.4L60 556.9h157.2v-332H60l-38.8 38.8z" fill="#009c9e"/><path d="M372.2 556.9H57.8L19 518.1V263.7l38.8-38.8h314.4l38.8 38.8v254.4l-38.8 38.8zm-302-30h289.6l21.2-21.2V276.1l-21.2-21.2H70.2L49 276.1v229.6l21.2 21.2z" fill="#49b2a1"/><path d="M215 224.9v30h144.8l21.2 21.2v229.6l-21.2 21.2H215v30h157.2l38.8-38.8V263.7l-38.8-38.8H215z" fill="#00a79e"/><path fill="#dae1e8" d="M202.7 546.5h26.2v73.1h-26.2z"/><path class="st6" d="M219.4 656.9l9.5-37.3h-26.2l9.4 37.3zM171.8 546.2h87.8v43.4h-87.8z"/><g id="Capa_2"><circle class="st0" cx="379.5" cy="242.8" r="56"/><g opacity=".31"><g id="Thermometer_hot_1_"><path class="st8" d="M388.2 551c20.3 8.9 33 35 32.8 54.9-.4 50-96.4 76.1-104.9-4.6-1.4-13.3 6-34.6 26.1-47.4 11.9-7.6 2.8-143.8 6-164.8 1.2-7.8-1.4-45.5 14.8-46.4 17.8-.9 16.9 48.8 17.5 60.5 1 18.4-.4 36.9.6 55.3 1.7 32-.3 89.3 7.1 92.5z"/><path class="st8" d="M382.1 560.4c16 7 30.3 29 28.1 44.5-6.6 47.7-74.7 59.7-84.7 2.9-2.2-12.7 5.5-34.6 24.8-46.1 9.6-5.7 2.7-137.6 3-156.9l21.9-1.5c0 21.2 1 154.5 6.9 157.1zM335.3 516c-4.1-3.1-9.8-1.9-14.7-1.8-5.7.1-11.3 0-16.9.9-1.8.3-1.8 3.2 0 3.5 5.6.9 11.3.8 16.9.9 4.9.1 10.6 1.3 14.7-1.8.6-.4.6-1.2 0-1.7zM335.4 493.8c-2-1.8-5.1-1.1-7.6-1-3.5.1-7.1-.1-10.6.5-1.5.3-1.5 2.7 0 3 3.1.6 6.3.4 9.4.5 2.8 0 6.6 1 8.8-1 .5-.6.5-1.5 0-2zM334 472c-4.1-3.1-9.8-1.9-14.7-1.8-5.7.1-11.4 0-16.9.9-1.8.3-1.8 3.2 0 3.5 5.6.9 11.3.8 16.9.9 4.9.1 10.5 1.3 14.7-1.8.6-.3.6-1.2 0-1.7zM334.1 449.9c-2-1.8-5.1-1.1-7.6-1-3.5.1-7.1-.1-10.6.5-1.5.3-1.5 2.7 0 3 3.1.5 6.3.4 9.4.5 2.8 0 6.6 1 8.8-1 .5-.7.5-1.6 0-2zM332.6 428.1c-4.1-3.1-9.8-1.9-14.7-1.8-5.7.1-11.3 0-16.9.9-1.8.3-1.8 3.2 0 3.5 5.6.9 11.3.8 16.9.9 4.9.1 10.6 1.3 14.7-1.8.7-.4.7-1.2 0-1.7zM332.8 405.9c-2-1.8-5.1-1.1-7.6-1-3.5.1-7.1-.2-10.6.5-1.5.3-1.5 2.7 0 3 3.1.6 6.3.4 9.4.5 2.8 0 6.6 1 8.8-1 .5-.6.5-1.5 0-2z"/><g><g class="st9"><path class="st8" d="M356.7 621.4c-11.2-14.3-7.6-32-2.1-47.5 10.4-29.5 12-63.2 8.7-95.9-3.4-33.7-5.9-68.3-4.2-102.3.6-11.9 2.4-22.3 5.8-32.8-.6-.1-1.2-.1-1.8-.1-16.2.9-13.7 38.5-14.8 46.4-3.2 21 5.9 157.2-6 164.8-20.1 12.8-27.5 34.1-26.1 47.4 5.3 50 44 59 72.9 46.8-11.9-7.7-24.2-16.4-32.4-26.8z"/></g></g></g><path class="st8" d="M427.9 246.6c-9.3-27.3-37.2-61-86.9-42.6-28.4 10.6-36.3 46.6-34.9 65.3 2.8 35.9 46.2 60.6 79 53.3 33.3-7.4 53.7-43.9 42.8-76zm-80.5-9.1c-1.5 4.6-7.8 6.3-12 5.1-2.4-.7-4.8-2.5-5.2-5.1-1.3-6.8 5.5-10 7.6-10.2 2.1-.2 3.9.2 5.7 1.2 2.9 1.8 5 5.6 3.9 9zm55.6 53.1c-4 12.6-19.4 15.4-30.9 12.8-11.3-2.5-21.1-10.6-24.8-21.6-7.8-22.9 26.4-57.6 46.8-38.2 3 2.9-1.1 7.1-4.4 6-10.7-3.4-19.7.8-27.4 8.8-6.2 6.4-8.6 16.2-3.7 24.1 4.2 6.7 12.1 11.4 20.1 11.6 7.9.2 13.7-4 20.6-7.2 2.3-1 4.4 1.5 3.7 3.7z" id="Ñelsius_2_"/></g><g id="Thermometer_hot_2_"><path class="st10" d="M401.2 533.1c-7.4-3.2-5.4-60.5-7.1-92.6-1-18.4.4-36.9-.6-55.3-.6-11.7.3-61.4-17.5-60.5-16.2.9-13.7 38.5-14.8 46.4-3.2 21 5.9 157.2-6 164.8-20.1 12.8-27.5 34.1-26.1 47.4 8.5 80.7 104.5 54.7 104.9 4.6.1-19.7-12.5-45.9-32.8-54.8z"/><path class="st11" d="M395.1 542.5c-5.9-2.5-6.9-135.9-6.9-157.1l-21.9 1.5c-.3 19.3 6.5 151.2-3 156.9-19.2 11.4-27 33.4-24.8 46.1 9.9 56.8 78 44.8 84.7-2.9 2.1-15.5-12.1-37.5-28.1-44.5z"/><path class="st10" d="M333.6 496.4c-5.7.1-11.3 0-16.9.9-1.8.3-1.8 3.2 0 3.5 5.6.9 11.3.8 16.9.9 4.9.1 10.6 1.3 14.7-1.8.7-.5.7-1.3 0-1.8-4.2-3-9.9-1.8-14.7-1.7zM340.7 474.9c-3.5.1-7.1-.1-10.6.5-1.5.3-1.5 2.7 0 3 3.1.6 6.3.4 9.4.5 2.8 0 6.6 1 8.8-1 .5-.5.5-1.4 0-1.8-2-2-5-1.2-7.6-1.2zM332.2 452.4c-5.7.1-11.4 0-16.9.9-1.8.3-1.8 3.2 0 3.5 5.6.9 11.3.8 16.9.9 4.9.1 10.5 1.3 14.7-1.8.7-.5.7-1.3 0-1.8-4.1-3-9.8-1.8-14.7-1.7zM339.4 431c-3.5.1-7.1-.1-10.6.5-1.5.3-1.5 2.7 0 3 3.1.5 6.3.4 9.4.5 2.8 0 6.6 1 8.8-1 .5-.5.5-1.4 0-1.8-2-2-5-1.3-7.6-1.2zM330.9 408.5c-5.7.1-11.3 0-16.9.9-1.8.3-1.8 3.2 0 3.5 5.6.9 11.3.8 16.9.9 4.9.1 10.6 1.3 14.7-1.8.7-.5.7-1.3 0-1.8-4.1-3-9.8-1.8-14.7-1.7zM338.1 387c-3.5.1-7.1-.2-10.6.5-1.5.3-1.5 2.7 0 3 3.1.6 6.3.4 9.4.5 2.8 0 6.6 1 8.8-1 .5-.5.5-1.4 0-1.8-2-2-5.1-1.2-7.6-1.2z"/><g class="st9"><path class="st0" d="M369.6 603.5c-11.2-14.3-7.6-32.1-2.1-47.5 10.4-29.5 12-63.2 8.7-95.9-3.4-33.7-5.9-68.3-4.2-102.3.6-11.9 2.4-22.3 5.8-32.8-.6-.1-1.1-.1-1.8-.1-16.2.9-13.7 38.5-14.8 46.4-3.2 21 5.9 157.2-6 164.8-20.1 12.8-27.5 34.1-26.1 47.4 5.3 50 44 59 72.9 46.8-11.9-7.6-24.2-16.3-32.4-26.8z"/></g></g><path class="st11" d="M354 186.2c-28.4 10.6-36.3 46.6-34.9 65.3 2.8 35.9 46.2 60.6 79 53.3 33.2-7.5 53.6-44 42.7-76-9.3-27.3-37.1-61-86.8-42.6zm-5.7 38.6c-2.4-.7-4.8-2.5-5.2-5.1-1.3-6.8 5.5-10 7.6-10.2 2.1-.2 3.9.2 5.7 1.2 3.1 1.7 5.1 5.5 4 8.9-1.6 4.7-7.9 6.3-12.1 5.2zm67.6 48c-4 12.6-19.4 15.4-30.9 12.8-11.3-2.5-21.1-10.6-24.8-21.6-7.8-22.9 26.4-57.6 46.8-38.2 3 2.9-1.1 7.1-4.4 6-10.7-3.4-19.7.8-27.4 8.8-6.2 6.4-8.6 16.2-3.7 24.1 4.2 6.7 12.1 11.4 20.1 11.6 7.9.2 13.7-4 20.6-7.2 2.3-1 4.5 1.4 3.7 3.7z" id="Ñelsius_1_"/></g></g></svg>