<svg xmlns="http://www.w3.org/2000/svg" viewBox="-41 164.9 512 512"><style>.st0{fill:#d8d0bc}.st2{fill:#f1f2f2}.st3{fill:#3a4d57}</style><g id="Capa_2"><path class="st0" d="M453.7 674.1H-21c-4.9 0-8.8-3.9-8.8-8.8V190.7c0-4.9 3.9-8.8 8.8-8.8h474.7c4.9 0 8.8 3.9 8.8 8.8v474.7c0 4.8-3.9 8.7-8.8 8.7z"/><linearGradient id="SVGID_1_" gradientUnits="userSpaceOnUse" x1="-29.783" y1="413.918" x2="462.492" y2="413.918"><stop offset="0" stop-color="#f1eee6"/><stop offset="1" stop-color="#e9e5d9"/></linearGradient><path fill="url(#SVGID_1_)" d="M-29.8 167.8h492.3v492.3H-29.8z"/><path class="st2" d="M214.9 167.8h247.6v492.3H214.9z"/><circle class="st0" cx="216.4" cy="413.9" r="167"/><path class="st2" d="M216.4 260.5c90 0 163.3 71.1 166.8 160.2.1-2.3.2-4.5.2-6.8 0-92.2-74.8-167-167-167s-167 74.8-167 167c0 2.3.1 4.5.2 6.8 3.5-89.1 76.8-160.2 166.8-160.2z"/><circle class="st3" cx="289.1" cy="413.9" r="24.3"/><circle class="st3" cx="143.6" cy="413.9" r="24.3"/></g></svg>