<svg xmlns="http://www.w3.org/2000/svg" viewBox="-41 164.9 512 512"><style>.st1{fill:#282825}.st5{fill:#8799b3}.st6{fill:#fff;stroke:#fff;stroke-width:2;stroke-miterlimit:10}</style><g id="Capa_4"><path fill="#009c9e" d="M-31 228.8h492v386H-31z"/><path class="st1" d="M-19.5 262.8h469.1v263H-19.5z"/><path fill="#161615" d="M214 262.8h235.5v263H214z"/><path fill="#52b259" d="M7.2 277.8h415.6v233H7.2z"/><path fill="#488c4b" d="M214 277.8h208.8v233H214z"/><path class="st5" d="M30 254.8c-5 0-9-4-9-9v-12c0-4.9 4-9 9-9 4.9 0 9 4.1 9 9v12c0 4.9-4 9-9 9zM50 254.8c-5 0-9-4-9-9v-12c0-4.9 4-9 9-9 4.9 0 9 4.1 9 9v12c0 4.9-4 9-9 9zM70 254.8c-5 0-9-4-9-9v-12c0-4.9 4-9 9-9 4.9 0 9 4.1 9 9v12c0 4.9-4 9-9 9zM90 254.8c-5 0-9-4-9-9v-12c0-4.9 4-9 9-9 4.9 0 9 4.1 9 9v12c0 4.9-4 9-9 9zM110 254.8c-5 0-9-4-9-9v-12c0-4.9 4-9 9-9 4.9 0 9 4.1 9 9v12c0 4.9-4 9-9 9zM130 254.8c-5 0-9-4-9-9v-12c0-4.9 4-9 9-9 4.9 0 9 4.1 9 9v12c0 4.9-4.1 9-9 9zM150 254.8c-5 0-9-4-9-9v-12c0-4.9 4.1-9 9-9s9 4.1 9 9v12c0 4.9-4.1 9-9 9zM170 254.8c-5 0-9-4-9-9v-12c0-4.9 4.1-9 9-9s9 4.1 9 9v12c0 4.9-4.1 9-9 9z"/><circle class="st1" cx="214.5" cy="569.3" r="36.5"/><path class="st6" d="M80.6 341.8l-5.6 5.5H64.1l-5.5-5.4.5-.5 5.2 5.2h10.4l5.1-5.1v-5.1l-5.1-5.1h-5.2v-.7h5.2l5.1-5.1v-5.1l-5.1-5.1H64.4l-5.2 5.2-.5-.5 5.5-5.4h10.9l5.6 5.6v5.6l-5.2 5.2 5.2 5.2v5.6zM112.9 341.8l-5.6 5.5H91.2v-.7h5v-31.3h-5v-.7h16.1l5.6 5.6v21.6zm-.7-.3v-21.1l-5.1-5.1H96.9v31.3h10.2l5.1-5.1zM177.4 325.8l-5.6 5.6H156V347h-.7v-32.3h16.5l5.6 5.6v5.5zm-.7-.3v-5.1l-5.1-5.1h-15.5v15.3h15.5l5.1-5.1zM209.6 325.8l-5.6 5.6h-10l15.4 15.4-.5.5-15.9-15.9h-4.8V347h-.7v-32.3H204l5.6 5.6v5.5zm-.7-.3v-5.1l-5.1-5.1h-15.5v15.3h15.5l5.1-5.1zM236.2 347.3h-10.7v-.7h5v-31.3h-5v-.7h10.7v.7h-5v31.3h5v.7zM274.2 347h-.8l-20.6-30.8V347h-.7v-32h.8l20.5 30.8V315h.7v32zM306 315.4h-10.3V347h-.7v-31.6h-10.3v-.7H306v.7zM338.3 347.3h-21.7v-32.7h21.7v.7h-21v15.3h10.3v.7h-10.3v15.3h21v.7zM370.9 325.8l-5.6 5.6h-10l15.4 15.4-.5.5-15.9-15.9h-4.8V347h-.7v-32.3h16.5l5.6 5.6v5.5zm-.7-.3v-5.1l-5.1-5.1h-15.5v15.3h15.5l5.1-5.1zM64.5 395.1l-5.6 5.5H42.8v-.7h5v-31.3h-5v-.6H59l5.6 5.6v21.5zm-.7-.3v-21.1l-5.1-5.1H48.5v31.3h10.2l5.1-5.1zM91.1 400.6H80.4v-.7h5v-31.3h-5v-.6h10.7v.7h-5V400h5v.6zM129.1 395l-5.7 5.7h-10.9l-5.5-5.4.5-.5 5.2 5.2h10.4l5-5-21.3-21.3 5.7-5.7h10.9l5.4 5.4-.5.5-5.2-5.2h-10.4l-5 5 21.4 21.3zM161.3 379.1l-5.6 5.6h-15.8v15.6h-.7V368h16.5l5.6 5.6v5.5zm-.7-.3v-5.1l-5.1-5.1H140V384h15.5l5.1-5.2zM193.2 400.6h-21.7v-32.3h.7v31.6h21v.7zM225.8 400.3h-.7V390h-20.6v10.3h-.7v-10.8l10.6-21.2h.8l10.6 21.2v10.8zm-1-11l-10.1-20.2-10.1 20.2h20.2zM258 368.5l-10.6 15.9v15.9h-.7v-15.9L236 368.5l.6-.3 10.4 15.6 10.3-15.6.7.3zM322.2 400.6h-21.7v-32.3h.7v31.6h21v.7zM354.7 395.2l-5.4 5.4h-10.9l-5.6-5.5v-21.6l5.6-5.6h10.9l5.4 5.4-.5.5-5.2-5.2h-10.4l-5.1 5.1v21.1l5.1 5.1H349l5.2-5.2.5.5zM387 395.1l-5.6 5.5h-16.1v-.7h5v-31.3h-5v-.6h16.1l5.6 5.6v21.5zm-.7-.3v-21.1l-5.1-5.1H371v31.3h10.2l5.1-5.1z"/></g></svg>