<svg version="1.1" id="Capa_1" xmlns="http://www.w3.org/2000/svg" x="0" y="0" viewBox="-41 164.9 512 512" xml:space="preserve"><style>.st0{fill:#121924}.st1{fill:#243145}.st4{fill:#dae0e7}.st5{fill:#75adce}.st6{fill:#6595af}.st7{fill:#efefef}</style><path class="st0" d="M471 676.9H366.7l-45-90H471v90z"/><path class="st1" d="M63.3 676.9H-41v-90h149.3l-45 90z"/><path d="M471 616.9H-41v-452h512v452z" fill="#466288"/><path class="st1" d="M215 164.9h256v452H215v-452z"/><path d="M372.2 556.9H57.8L19 518.1V263.7l38.8-38.8h314.4l38.8 38.8v254.4l-38.8 38.8z" fill="#fff"/><path class="st4" d="M372.2 224.9H215v332h157.2l38.8-38.8V263.7l-38.8-38.8z"/><path transform="rotate(-24.92 330.396 490.133)" class="st5" d="M295.5 487.3h69.7v5.7h-69.7z"/><path transform="rotate(-114.923 332.751 495.274)" class="st6" d="M329.9 460.4h5.7v69.7h-5.7z"/><path transform="rotate(-24.92 314.369 500.678)" d="M313.4 495h1.9v11.4h-1.9z"/><ellipse transform="rotate(-24.92 343.513 483.212)" class="st7" cx="343.5" cy="483.2" rx="8.4" ry="1.8"/><path transform="rotate(-24.92 348.806 484.713)" d="M347.8 479h1.9v11.4h-1.9z"/><g><path class="st5" d="M181.2 488.6h69.7v5.7h-69.7z"/><path class="st6" d="M181.2 494.3h69.7v5.7h-69.7z"/><path d="M196.1 488.6h1.9V500h-1.9zM234 488.6h1.9V500H234z"/><ellipse class="st7" cx="216" cy="491.4" rx="10.8" ry="1.8"/></g><g><path class="st5" d="M95.1 469.8h8V516h-8z"/><path class="st6" d="M103.1 469.8h8V516h-8z"/><path d="M95.1 504.8h16v1.3h-16zM95.1 479.7h16v1.3h-16z"/><ellipse class="st7" cx="103.3" cy="484.3" rx="6.8" ry="3"/></g><path d="M54.5 518.2h323v6.9h-323zM54.5 460.7h323v6.9h-323z"/><g><path d="M362.1 492.9v5.9c0 4.6-3.7 8.4-8.4 8.4h-45.9c-4.6 0-8.4-3.7-8.4-8.4v-5.9h-53.1v5.9c0 4.6-3.7 8.4-8.4 8.4H192c-4.6 0-8.4-3.7-8.4-8.4v-5.9h-51v5.9c0 4.6-3.7 8.4-8.4 8.4H78.3c-4.6 0-8.4-3.7-8.4-8.4v-5.9H54.5v25.3h323v-25.3h-15.4z" fill="#c7a62f"/><path d="M69.9 487c0-4.6 3.7-8.4 8.4-8.4h45.9c4.6 0 8.4 3.7 8.4 8.4v5.9h51V487c0-4.6 3.7-8.4 8.4-8.4h45.9c4.6 0 8.4 3.7 8.4 8.4v5.9h53.1V487c0-4.6 3.7-8.4 8.4-8.4h45.9c4.6 0 8.4 3.7 8.4 8.4v5.9h15.4v-25.3h-323v25.3h15.4V487z" fill="#efc937"/></g><path class="st1" d="M215 332.6l-55-41.3v-66.5h110v66.5l-55 41.3z"/><path class="st0" d="M270 291.4v-66.5h-55v107.8l55-41.3z"/><path class="st4" d="M372.2 556.9H57.8L19 518.1V263.7l38.8-38.8h314.4l38.8 38.8v254.4l-38.8 38.8zm-302-30h289.6l21.2-21.2V276.1l-21.2-21.2H70.2L49 276.1v229.6l21.2 21.2z"/><path d="M215 224.9v30h144.8l21.2 21.2v229.6l-21.2 21.2H215v30h157.2l38.8-38.8V263.7l-38.8-38.8H215z" fill="#bec8d6"/></svg>