<svg xmlns="http://www.w3.org/2000/svg" width="512" height="512"><path d="M472 512H0v-30h472c5.514 0 10-4.486 10-10s-4.486-10-10-10H281c-22.056 0-40-17.944-40-40v-45h30v45c0 5.514 4.486 10 10 10h191c22.056 0 40 17.944 40 40s-17.944 40-40 40z" data-original="#FFDE55" fill="#ffde55"/><path d="M472 432H281c-5.514 0-10-4.486-10-10v-45h-15v76.192c6.854 5.504 15.546 8.808 25 8.808h191c5.514 0 10 4.486 10 10s-4.486 10-10 10H256v30h216c22.056 0 40-17.944 40-40s-17.944-40-40-40z" data-original="#FF9811" fill="#ff9811"/><path d="M268.5 392h-25L206 342v-41h100v41l-37.5 50z" data-original="#FF728B" data-old_color="#49b2a1" fill="#49b2a1"/><path data-original="#EA348B" class="active-path" data-old_color="#00a79e" fill="#00a79e" d="M256 301v91h12.5l37.5-50v-41z"/><path d="M151 214h-30v-86c0-24.813 20.187-45 45-45h30v30h-30c-8.271 0-15 6.729-15 15v86z" data-original="#466288" fill="#466288"/><path d="M301 90h-90V0h90v90z" data-original="#FF728B" data-old_color="#49b2a1" fill="#49b2a1"/><path data-original="#EA348B" class="active-path" data-old_color="#00a79e" fill="#00a79e" d="M256 0h45v90h-45z"/><path d="M296 331h-80c-19.299 0-35-15.701-35-35V95c0-19.299 15.701-35 35-35h80c19.299 0 35 15.701 35 35v201c0 19.299-15.701 35-35 35z" data-original="#DAE0E7" fill="#dae0e7"/><path d="M296 60h-40v271h40c19.299 0 35-15.701 35-35V95c0-19.299-15.701-35-35-35z" data-original="#8799B3" fill="#8799b3"/><circle cx="256" cy="256" r="15" data-original="#466288" fill="#466288"/><path data-original="#FFFFFF" fill="#fff" d="M241 120h30v30h-30zM241 180h30v30h-30z"/><g fill="#bec8d6"><path data-original="#BEC8D6" d="M256 120h15v30h-15zM256 180h15v30h-15z"/></g><path d="M271 256c0-8.284-6.716-15-15-15v30c8.284 0 15-6.716 15-15z" data-original="#243145" fill="#243145"/></svg>