<?xml version="1.0"?>
<svg xmlns="http://www.w3.org/2000/svg" xmlns:xlink="http://www.w3.org/1999/xlink" version="1.1" id="Capa_1" x="0px" y="0px" viewBox="0 0 512 512" style="enable-background:new 0 0 512 512;" xml:space="preserve" width="512px" height="512px" class=""><g><path style="fill:#49B2A1" d="M322.756,512c-36.775,0.002-69.985-23.191-82.645-57.715l-6.464-17.63  c-43.351,3.104-86.688-10.722-120.252-38.667c-36.133-30.084-58.23-74.268-60.625-121.224L52.75,276v-38h270  c89.299,0,136.5,51.351,136.5,148.5c0,37.878-12.44,69.525-35.976,91.521C399.489,500.25,364.73,512,322.756,512z" data-original="#FF728B" class="active-path" data-old_color="#49b2a1"/><path style="fill:#00A79E" d="M322.75,238H250.5v236.188c16.211,23.234,43.108,37.813,72.256,37.812  c41.975,0,76.733-11.75,100.519-33.979c23.535-21.996,35.976-53.644,35.976-91.521C459.25,289.351,412.049,238,322.75,238z" data-original="#EA348B" class="" data-old_color="#00a79e"/><g>
	<path style="fill:#009C9E" d="M455.186,422H151.781c25.495,11.527,53.676,16.674,81.866,14.655L239.273,452h204.314   C448.684,442.852,452.561,432.81,455.186,422z" data-original="#E4187A" class="" data-old_color="#009c9e"/>
	<path style="fill:#009C9E" d="M104.486,390h354.728c0.024-1.161,0.036-2.327,0.036-3.5c0-9.251-0.431-18.084-1.283-26.5H79.754   C86.782,370.862,95.066,380.943,104.486,390z" data-original="#E4187A" class="" data-old_color="#009c9e"/>
	<path style="fill:#009C9E" d="M63.547,328h388.598c-3.018-10.98-6.99-20.986-11.9-30H55.224   C57.076,308.268,59.869,318.311,63.547,328z" data-original="#E4187A" class="" data-old_color="#009c9e"/>
</g><g>
	<path style="fill:#005E59" d="M300.5,268h115.968c-22.613-19.831-53.997-30-93.718-30H300.5c-19.299,0-35-15.701-35-35v-11h-30v11   C235.5,238.841,264.659,268,300.5,268z" data-original="#880E48" class="" data-old_color="#005e59"/>
	<path style="fill:#005E59" d="M250.5,422v30h193.087c0.582-1.045,1.144-2.104,1.694-3.172c0.143-0.277,0.282-0.558,0.423-0.837   c0.424-0.841,0.839-1.687,1.244-2.542c0.127-0.269,0.255-0.537,0.381-0.807c1.056-2.276,2.047-4.598,2.965-6.969   c0.023-0.06,0.045-0.12,0.068-0.18c0.442-1.149,0.868-2.309,1.278-3.479c0.042-0.121,0.085-0.242,0.127-0.364   c1.309-3.775,2.451-7.66,3.42-11.651H250.5V422z" data-original="#880E48" class="" data-old_color="#005e59"/>
	<path style="fill:#005E59" d="M250.5,360v30h208.714c0.024-1.161,0.036-2.327,0.036-3.5c0-2.068-0.029-4.109-0.072-6.135   c-0.01-0.461-0.02-0.921-0.032-1.38c-0.053-2.033-0.121-4.052-0.218-6.043c0-0.009-0.001-0.018-0.001-0.027   c-0.098-2.018-0.224-4.008-0.366-5.982c-0.023-0.326-0.047-0.652-0.071-0.976c-0.153-2.007-0.323-3.996-0.522-5.958l0,0H250.5V360z   " data-original="#880E48" class="" data-old_color="#005e59"/>
	<path style="fill:#005E59" d="M250.5,298v30h201.645c-0.374-1.362-0.763-2.708-1.167-4.039c-0.006-0.02-0.012-0.04-0.018-0.061   c-2.438-8.034-5.41-15.521-8.908-22.454c-0.007-0.014-0.014-0.028-0.021-0.042c-0.58-1.148-1.174-2.281-1.783-3.399   c-0.001-0.002-0.002-0.003-0.003-0.005H250.5z" data-original="#880E48" class="" data-old_color="#005e59"/>
</g><path style="fill:#243145;" d="M301.5,210h-102v-90h102V210z" data-original="#243145" class=""/><rect x="250.5" y="120" style="fill:#121924;" width="51" height="90" data-original="#121924" class=""/><path style="fill:#A3B1C4;" d="M145.5,110h-90V0h90V110z" data-original="#A3B1C4" class=""/><path style="fill:#8799B3;" d="M445.5,110h-90V0h90V110z" data-original="#8799B3" class=""/><path style="fill:#466288" d="M340.5,150h-180c-24.813,0-45-20.187-45-45V0h270v105C385.5,129.813,365.313,150,340.5,150z" data-original="#466288" class=""/><g>
	<path style="fill:#243145;" d="M250.5,0v150h90c24.813,0,45-20.187,45-45V0H250.5z" data-original="#243145" class=""/>
	<rect x="235.5" style="fill:#243145;" width="30" height="65" data-original="#243145" class=""/>
</g><rect x="295.5" style="fill:#121924;" width="30" height="65" data-original="#121924" class=""/><rect x="175.5" style="fill:#243145;" width="30" height="65" data-original="#243145" class=""/><rect x="250.5" style="fill:#121924;" width="15" height="65" data-original="#121924" class=""/></g> </svg>
