<svg xmlns="http://www.w3.org/2000/svg" width="512" height="512"><path d="M467 512H45c-24.813 0-45-20.187-45-45V45C0 20.187 20.187 0 45 0h422c24.813 0 45 20.187 45 45v422c0 24.813-20.187 45-45 45z" data-original="#466288" fill="#466288"/><path d="M467 0H256v512h211c24.813 0 45-20.187 45-45V45c0-24.813-20.187-45-45-45z" data-original="#243145" fill="#243145"/><g fill="#8799b3"><path data-original="#8799B3" d="M264 290h126v30H264zM389 390h66v30h-66zM264 390h75v30h-75z"/></g><path d="M415 345c-22.056 0-40-17.944-40-40s17.944-40 40-40 40 17.944 40 40-17.944 40-40 40z" data-original="#EA348B" data-old_color="#00a79e" fill="#00a79e"/><path d="M512 130H0V45C0 20.187 20.187 0 45 0h422c24.813 0 45 20.187 45 45v85z" data-original="#243145" fill="#243145"/><circle cx="175" cy="65" r="15" data-original="#BEC8D6" fill="#bec8d6"/><circle cx="125" cy="65" r="15" data-original="#FF728B" class="active-path" data-old_color="#49b2a1" fill="#49b2a1"/><circle cx="75" cy="65" r="15" data-original="#E4187A" data-old_color="#009c9e" fill="#009c9e"/><path d="M238 241.032l-91-46.907-91 46.907v106.819l91 45.234 91-45.234V241.032z" data-original="#FF728B" class="active-path" data-old_color="#49b2a1" fill="#49b2a1"/><path data-original="#EA348B" data-old_color="#00a79e" fill="#00a79e" d="M147 194.125v198.959l91-45.233V241.032z"/><path data-original="#8799B3" fill="#8799b3" d="M329 190h126v30H329z"/><path d="M364 445c-22.056 0-40-17.944-40-40s17.944-40 40-40 40 17.944 40 40-17.944 40-40 40z" data-original="#DAE0E7" fill="#dae0e7"/><path d="M467 0H256v130h256V45c0-24.813-20.187-45-45-45z" data-original="#121924" fill="#121924"/><path d="M304 245c-22.056 0-40-17.944-40-40s17.944-40 40-40 40 17.944 40 40-17.944 40-40 40z" data-original="#BEC8D6" fill="#bec8d6"/><path d="M147 393.084L56 347.85V241.032l91 45.995 91-45.995v106.819l-91 45.233z" data-original="#E4187A" data-old_color="#009c9e" fill="#009c9e"/><path data-original="#880E48" data-old_color="#005e59" fill="#005e59" d="M238 347.851V241.032l-91 45.995v106.057z"/></svg>