<svg id="Capa_1" xmlns="http://www.w3.org/2000/svg" viewBox="-41 164.9 512 512"><style>.st0{fill:#005e59}.st2{fill:#243145}.st3{fill:#49b2a1}</style><path class="st0" d="M301.9 313.1v-33.9c49.2 0 89.2 5.2 89.2-44.1v-68.9H425v68.9c0 68-55.2 78-123.1 78z"/><path d="M216 676.9c-115.2 0-209-93.8-209-209s93.8-209 209-209 209 93.8 209 209-93.8 209-209 209z" fill="#466288"/><path class="st2" d="M216 258.9v418c115.2 0 209-93.8 209-209s-93.8-209-209-209z"/><path class="st2" d="M216 535.7c-37.4 0-67.8-30.4-67.8-67.8s30.4-67.8 67.8-67.8 67.8 30.4 67.8 67.8-30.4 67.8-67.8 67.8z"/><path class="st3" d="M199.1 326.7H233v39.5h-33.9zM199.1 569.6H233v39.5h-33.9zM74.8 450.9h39.5v33.9H74.8z"/><path transform="rotate(-134.999 130.162 553.754)" class="st3" d="M113.2 534h33.9v39.5h-33.9z"/><path transform="rotate(-134.999 130.126 382.045)" class="st3" d="M110.4 365.1h39.5V399h-39.5z"/><path d="M283.8 467.9c0-37.4-30.4-67.8-67.8-67.8v135.6c37.4 0 67.8-30.4 67.8-67.8z" fill="#121924"/><g><path class="st0" d="M317.7 450.9h39.5v33.9h-39.5z"/><path transform="rotate(-134.999 301.902 381.947)" class="st0" d="M285 362.2h33.9v39.5H285z"/><path transform="rotate(-134.999 301.867 553.726)" class="st0" d="M282.1 536.8h39.5v33.9h-39.5z"/><path class="st0" d="M216 326.7h16.9v39.5H216zM216 569.6h16.9v39.5H216z"/></g></svg>