<svg xmlns="http://www.w3.org/2000/svg" width="512" height="512"><path d="M512 512H407.729l-45-90H512v90z" data-original="#121924" fill="#121924"/><path d="M104.271 512H0v-90h149.271l-45 90z" data-original="#243145" fill="#243145"/><path d="M512 452H0V0h512v452z" data-original="#466288" fill="#466288"/><path data-original="#243145" fill="#243145" d="M256 0h256v452H256z"/><path d="M413.213 392H98.787L60 353.213V98.787L98.787 60h314.427L452 98.787v254.426L413.213 392z" data-original="#FFFFFF" fill="#fff"/><path data-original="#DAE0E7" fill="#dae0e7" d="M413.213 60H256v332h157.213L452 353.213V98.787z"/><path d="M256 167.75l-55-41.25V60h110v66.5l-55 41.25z" data-original="#243145" fill="#243145"/><path data-original="#121924" fill="#121924" d="M311 126.5V60h-55v107.75z"/><path data-original="#E4187A" data-old_color="#009c9e" fill="#009c9e" d="M241 217h30v45h-30zM185.514 284.909l-22.5-38.97 25.98-14.999 22.499 38.97zM148.902 332.491l-38.97-22.5 15-25.978 38.97 22.5z"/><path data-original="#880E48" class="active-path" data-old_color="#005e59" fill="#005e59" d="M326.487 284.907l-25.98-15 22.5-38.969 25.98 15zM363.1 332.494l-15-25.98 38.969-22.499 15 25.98zM256 217h15v45h-15z"/><path d="M386 382H126v-5c0-71.683 58.318-130 130-130s130 58.317 130 130v5z" data-original="#FF728B" data-old_color="#49b2a1" fill="#49b2a1"/><path d="M326 382H186v-5c0-38.599 31.402-70 70-70s70 31.401 70 70v5z" data-original="#E4187A" data-old_color="#009c9e" fill="#009c9e"/><path d="M386 382v-5c0-71.683-58.318-130-130-130v135h130z" data-original="#EA348B" data-old_color="#00a79e" fill="#00a79e"/><path d="M326 382v-5c0-38.599-31.402-70-70-70v75h70z" data-original="#880E48" class="active-path" data-old_color="#005e59" fill="#005e59"/><path d="M413.213 392H98.787L60 353.213V98.787L98.787 60h314.427L452 98.787v254.426L413.213 392zm-302-30h289.573L422 340.787V111.213L400.787 90H111.213L90 111.213v229.574L111.213 362z" data-original="#DAE0E7" fill="#dae0e7"/><path data-original="#BEC8D6" fill="#bec8d6" d="M256 60v30h144.787L422 111.213v229.574L400.787 362H256v30h157.213L452 353.213V98.787L413.213 60z"/></svg>