<svg xmlns="http://www.w3.org/2000/svg" viewBox="-41 164.9 512 512"><style>.st4{fill:#fff}.st5{fill:#c07928}.st7{fill:#d59955}</style><g id="Capa_3"><linearGradient id="SVGID_1_" gradientUnits="userSpaceOnUse" x1="451.192" y1="375.846" x2="413.151" y2="344.702"><stop offset=".137" stop-color="#d0d0d0"/><stop offset=".182" stop-color="#cfcfcf"/><stop offset=".496" stop-color="#cacaca"/><stop offset=".543" stop-color="#c9c9c9"/><stop offset="1" stop-color="#bebebe"/></linearGradient><path fill="url(#SVGID_1_)" d="M370.1 335.7l100.6 30.8.3-.7-98-30.2z"/><path fill="#ca802a" d="M52.8 335.7h320.3v206.1H52.8z"/><path opacity=".1" fill="#654015" d="M52.8 399h320.3v41.1H52.8z"/><path fill="#dfb37f" d="M373.1 335.7H52.8L19 423.6h382.6z"/><path class="st4" d="M112.5 287.2H317v48.5H112.5z"/><path class="st5" d="M52.8 335.7h59.7v-48.5z"/><path class="st4" d="M317 287.2v48.5h56.1z"/><path fill="#905b1e" d="M112.5 287.2H317v48.5H112.5z"/><path class="st7" d="M53 335.5L-37.1 274l89.9-31.1 59.7 44.3z"/><path class="st5" d="M317 287.2v48.5h56.1z"/><path class="st7" d="M317 287.2l76.5 26.9 77.5 51.7-98-30.2zM112.5 287.2l12.4-49.1h176l16.1 49.1z"/></g></svg>