<svg xmlns="http://www.w3.org/2000/svg" width="161.25" height="185.97"><path fill="#00867E" d="M130.5 124.22l-49.75 29L31 123.72l18.25-11 31.38 19 32.12-19z"/><path fill="#353C3A" d="M156.5 52.22v85l-73.75 42.25v-21.25l55-32.5v-62.5z"/><path fill="#00C0AA" d="M133.25 62.47v57l-18.75-10.75v-36l-31.25-19v-21z"/><path fill="#00615D" d="M78 33.22v20.5L46.75 72.47v36.25l-18.75 11v-57.5z"/><path fill="#2F3435" d="M78.5 158.47v21.25L5 137.22v-85.5l18.5 10.75v62.75z"/><path fill="#72797C" d="M154.96 48.2L135.5 59.35 80.43 27.18 25.25 59.22 5.77 47.72 80.8 5.04z"/><path fill="#FFF" d="M80.25 185.72c-.04 0-80-47.84-80-47.93V47.31C.25 47.22 80.8.21 80.87.25c0 0 80.13 47.46 80.13 47.55v90.67c0 .09-80.71 47.25-80.75 47.25zM5 137.22l73.5 42.5v-21.25l-55-33.25V62.47L5 51.72v85.5zm151.5 0v-85l-18.75 11v62.5l-55 32.5v21.25l73.75-42.25zm-21-77.87l19.46-11.15L80.8 5.04 5.77 47.72l19.48 11.5 55.18-32.04 55.07 32.17zm-2.25 60.12v-57l-50-29.75v21l31.25 19v36l18.75 10.75zm-52.5 33.75l49.75-29-17.75-11.5-32.12 19-31.38-19-18.25 11 49.75 29.5zm29.5-44.5V74.47L80.63 57.22 50.75 74.47v34.75l29.88 18 29.62-18.5zM78 53.72v-20.5l-50 29v57.5l18.75-11V72.47L78 53.72z"/></svg>