<svg xmlns="http://www.w3.org/2000/svg" width="503.732" height="185.467"><path fill="#00867E" d="M130.25 123.967l-49.75 29-49.75-29.5 18.25-11 31.38 19 32.12-19z"/><path fill="#353C3A" d="M156.25 51.967v85l-73.75 42.25v-21.25l55-32.5v-62.5z"/><path fill="#00C0AA" d="M133 62.217v57l-18.75-10.75v-36l-31.25-19v-21z"/><path fill="#00615D" d="M77.75 32.967v20.5L46.5 72.217v36.25l-18.75 11v-57.5z"/><path fill="#2F3435" d="M78.25 158.217v21.25l-73.5-42.5v-85.5l18.5 10.75v62.75z"/><path fill="#72797C" d="M154.71 47.947l-19.46 11.15-55.07-32.17L25 58.967l-19.48-11.5 75.03-42.68z"/><path fill="#FFF" d="M80 185.467c-.04 0-80-47.84-80-47.93v-90.48c0-.09 80.55-47.1 80.62-47.06 0 0 80.13 47.46 80.13 47.55v90.67c0 .09-80.71 47.25-80.75 47.25zm-75.25-48.5l73.5 42.5v-21.25l-55-33.25v-62.75l-18.5-10.75v85.5zm151.5 0v-85l-18.75 11v62.5l-55 32.5v21.25l73.75-42.25zm-21-77.87l19.46-11.15-74.16-43.16-75.03 42.68L25 58.967l55.18-32.04 55.07 32.17zm-2.25 60.12v-57l-50-29.75v21l31.25 19v36l18.75 10.75zm-52.5 33.75l49.75-29-17.75-11.5-32.12 19-31.38-19-18.25 11 49.75 29.5zm29.5-44.5v-34.25l-29.62-17.25-29.88 17.25v34.75l29.88 18 29.62-18.5zm-32.25-55v-20.5l-50 29v57.5l18.75-11v-36.25l31.25-18.75z"/><g><path fill="#35887F" d="M185.775 71.919c4.361 2.058 7.104 6.321 7.104 11.171 0 6.957-5.782 12.592-12.641 12.592-4.654 0-9.162-2.4-11.71-6.32-.735-1.225-.392-2.401.588-3.136l2.45-1.813c.343-.294.784-.392 1.225-.392.686 0 1.372.294 1.813.833 1.274 1.862 3.283 3.43 5.634 3.43 2.891 0 5.047-2.401 5.047-5.193 0-2.352-1.715-4.508-4.018-4.949l-.931 1.225c-.441.637-1.029.833-1.568.833-.49 0-.98-.196-1.274-.392 0 0-1.617-1.127-2.597-1.862-1.029-.735-.98-2.303-.392-2.989l5.341-7.545h-9.554v-2.009c0-2.646 2.058-5.341 6.075-5.341h9.995c2.303 0 4.165 1.666 4.165 4.018 0 .931-.294 1.764-.882 2.499l-3.87 5.34zM223.161 81.425c0 7.3-5.341 13.67-12.886 13.67h-8.476c-1.617 0-2.793-1.372-2.793-2.939V63.492c0-.784.294-1.519.833-2.058.49-.588 1.225-.882 1.96-.882h8.476c7.545 0 12.886 6.418 12.886 13.719v7.154zm-7.153-7.3c0-3.283-2.548-6.271-5.929-6.271h-3.92v19.941h3.92c3.381 0 5.929-3.038 5.929-6.321v-7.349zM239.528 75.986l-1.813 17.197c-.196 1.127-1.078 1.911-2.107 1.911h-3.233c-.588 0-1.078-.196-1.421-.588a2.28 2.28 0 01-.49-1.617l3.626-30.181c.098-1.323 1.078-2.254 2.352-2.254h3.969c1.029 0 1.911.686 2.205 1.715l6.517 20.97L255.6 62.12a2.368 2.368 0 012.254-1.666h3.577c1.322 0 2.303.931 2.4 2.254l3.626 30.181a2.28 2.28 0 01-.49 1.617c-.343.392-.833.588-1.421.588h-3.381a2.128 2.128 0 01-2.106-1.96l-1.862-17.197-5.438 17.736c-.294 1.029-1.176 1.715-2.204 1.715h-3.332c-1.029 0-1.911-.686-2.205-1.666l-5.49-17.736zM301.607 92.4c.05.195.05.392.05.686 0 1.127-.833 2.009-1.96 2.009h-3.087c-1.078 0-1.96-.686-2.254-1.764l-1.715-5.831h-8.771l-1.764 5.831c-.294 1.078-1.176 1.764-2.205 1.764h-3.037c-1.127 0-1.96-.882-1.96-2.009 0-.294 0-.49.049-.686l9.407-30.378c.294-1.029 1.176-1.715 2.254-1.715h3.332c1.077 0 1.959.686 2.253 1.715l9.408 30.378zm-13.376-19.892l-2.303 7.888h4.606l-2.303-7.888zM309.597 95.095c-1.029 0-1.862-.833-1.862-1.911V62.512c0-1.126.833-1.959 1.862-1.959h3.43c1.029 0 1.862.833 1.862 1.959V74.37h.049l9.652-12.788c.489-.686 1.225-1.029 2.058-1.029h3.919c1.029 0 1.813.784 1.813 1.813 0 .392-.147.784-.393 1.176l-10.827 14.11 10.877 14.552c.245.343.392.734.392 1.127a1.78 1.78 0 01-1.813 1.813l-4.018-.049c-.833 0-1.52-.343-2.009-1.029l-9.457-12.592h-.244v11.71c0 1.078-.833 1.911-1.862 1.911h-3.429zM345.954 67.853v5.781h7.496c1.028 0 1.861.833 1.861 1.911v3.283c0 1.078-.833 1.911-1.861 1.911h-7.496v7.056h10.387c1.029 0 1.862.882 1.862 1.959v3.381c0 1.127-.833 1.96-1.862 1.96h-14.748c-1.616 0-2.793-1.372-2.793-2.939V63.492c0-.784.294-1.519.833-2.058.49-.588 1.226-.882 1.96-.882h14.748c1.029 0 1.862.833 1.862 1.959v3.381c0 1.078-.833 1.96-1.862 1.96h-10.387zM380.743 81.327l6.565 10.73c.196.344.294.735.294 1.078 0 1.127-.833 1.96-1.91 1.96h-3.528c-.833 0-1.47-.392-1.91-1.078l-6.909-11.71h-.686v10.828c0 1.127-.833 1.96-1.862 1.96h-3.43c-1.028 0-1.861-.833-1.861-1.96V63.492c0-.784.294-1.519.833-2.058.489-.588 1.225-.882 1.96-.882h8.084c5.978 0 10.583 4.948 10.583 10.877 0 4.312-2.45 8.183-6.223 9.898zm-8.084-13.572v7.35h3.479c2.106 0 3.626-1.519 3.626-3.626 0-2.156-1.421-3.724-3.626-3.724h-3.479z"/><path fill="#383E3D" d="M401.568 74.859v18.275c0 1.127-.783 1.96-1.861 1.96h-3.087c-1.029 0-1.862-.833-1.862-1.96V62.855c0-1.274.98-2.303 2.205-2.303h3.528c.833 0 1.47.392 1.959 1.127l10.73 19.157V62.512c0-1.126.833-1.959 1.862-1.959h3.136c1.028 0 1.813.833 1.813 1.959v30.28c0 1.273-.979 2.303-2.205 2.303h-3.576c-.784 0-1.47-.392-1.96-1.127l-10.682-19.109zM453.214 82.699c0 6.909-5.292 13.033-12.396 13.033s-12.396-6.124-12.396-13.033v-9.701c0-6.909 5.34-12.984 12.396-12.984s12.396 6.075 12.396 12.984v9.701zm-7.154-9.701c0-2.891-2.204-5.684-5.242-5.684-2.988 0-5.242 2.793-5.242 5.684v9.701c0 2.842 2.254 5.732 5.242 5.732 3.038 0 5.242-2.842 5.242-5.732v-9.701zM501.918 60.553a1.88 1.88 0 011.47.735c.343.49.44 1.127.245 1.715l-8.624 30.574a2.092 2.092 0 01-2.058 1.616h-4.115c-.882 0-1.715-.686-1.96-1.616l-4.998-18.766-5.046 18.766a2.094 2.094 0 01-2.059 1.616h-4.115c-.882 0-1.715-.686-1.96-1.567l-8.427-30.574a2.413 2.413 0 01-.099-.588c0-1.029.833-1.911 1.862-1.911h3.381c.882 0 1.715.686 1.959 1.617l5.537 20.088 5.291-20.088c.245-.931 1.078-1.617 2.01-1.617h3.38c.882 0 1.715.686 1.96 1.617l5.537 20.088 5.291-20.088c.245-.931 1.078-1.617 2.009-1.617h3.529z"/></g><g fill="#72797C"><path d="M183.897 128.351V108.07h12.515v2.367h-9.902v6.352h8.604v2.367h-8.604v6.828h10.076v2.367h-12.689zM204.179 112.442c.722 0 1.359.113 1.913.34.554.226 1.02.534 1.4.924.38.39.667.842.859 1.356a4.66 4.66 0 01.275 1.978 3.92 3.92 0 00-.015.225h-2.512v-.26c0-.299-.034-.595-.101-.889a2.106 2.106 0 00-.354-.786c-.168-.231-.39-.416-.664-.556s-.619-.21-1.032-.21c-.433 0-.784.072-1.054.217s-.483.322-.643.534a1.828 1.828 0 00-.325.693c-.058.25-.086.48-.086.692 0 .424.101.772.303 1.047s.469.508.801.7c.332.192.712.36 1.14.505s.864.299 1.307.462c.442.164.878.354 1.306.57s.809.496 1.141.837c.332.342.599.763.801 1.264.202.5.303 1.111.303 1.833 0 .837-.125 1.557-.375 2.158a3.963 3.963 0 01-1.04 1.486 4.142 4.142 0 01-1.573.859 6.819 6.819 0 01-1.978.274c-.895 0-1.66-.128-2.295-.383s-1.153-.597-1.552-1.024a4.083 4.083 0 01-.881-1.458 5.112 5.112 0 01-.281-1.683c0-.201.004-.354.014-.454.01-.102.015-.166.015-.195h2.555v.304c0 .49.065.909.195 1.256s.31.633.541.858c.231.227.5.393.809.498.308.106.64.159.996.159.317 0 .616-.048.895-.145a2.103 2.103 0 001.256-1.169c.125-.289.188-.621.188-.996 0-.491-.101-.896-.303-1.213s-.469-.585-.801-.801a5.783 5.783 0 00-1.133-.563c-.424-.158-.859-.319-1.307-.483a12.593 12.593 0 01-1.306-.563c-.424-.212-.801-.479-1.133-.802s-.599-.722-.801-1.198-.303-1.061-.303-1.754c0-.692.113-1.313.339-1.862a3.775 3.775 0 01.975-1.393c.423-.38.931-.674 1.523-.881s1.257-.308 1.998-.308zM220.765 128.351h-2.411v-21.379h2.411v21.379zM228.849 112.442c1.568 0 2.743.383 3.522 1.148.78.765 1.169 1.835 1.169 3.212v8.719c0 .365.086.628.26.786a.834.834 0 00.577.238h.938v1.689c-.135.077-.337.153-.606.23s-.602.116-.996.116c-.635 0-1.165-.176-1.588-.527-.424-.352-.712-.815-.866-1.393h-.145a4.251 4.251 0 01-1.581 1.501c-.65.355-1.384.534-2.202.534a5.74 5.74 0 01-.837-.065c-.298-.043-.599-.12-.902-.23s-.597-.27-.88-.477a3.14 3.14 0 01-.751-.794c-.216-.322-.39-.715-.52-1.177s-.195-1.005-.195-1.631c0-1.068.197-1.941.592-2.62s.943-1.208 1.646-1.588 1.535-.64 2.498-.779a21.8 21.8 0 013.132-.21v-2.006c0-.376-.034-.717-.101-1.025a1.84 1.84 0 00-.375-.794 1.814 1.814 0 00-.75-.52c-.317-.125-.727-.188-1.227-.188-.462 0-.844.072-1.147.217a1.976 1.976 0 00-.729.57c-.183.235-.313.5-.39.794a3.48 3.48 0 00-.116.888v.346h-2.396a1.21 1.21 0 01-.029-.273v-.361c0-.712.123-1.34.368-1.884a3.67 3.67 0 011.032-1.357c.443-.36.97-.632 1.581-.815a7.036 7.036 0 012.014-.274zm2.266 8.85c-.789 0-1.508.036-2.158.108-.649.071-1.208.214-1.674.426s-.83.505-1.09.88c-.26.376-.39.866-.39 1.473 0 .886.178 1.501.534 1.848s.876.52 1.559.52c.385 0 .768-.079 1.148-.238.38-.158.724-.396 1.032-.714a3.65 3.65 0 00.751-1.198c.192-.481.289-1.044.289-1.689v-1.416zM246.677 114.421h.173c.404-.693.893-1.196 1.465-1.509.573-.313 1.249-.47 2.028-.47.587 0 1.116.082 1.588.246.471.163.873.433 1.205.809.332.375.589.861.772 1.457.183.598.274 1.328.274 2.194v11.202h-2.426v-11.028c0-.539-.053-.984-.158-1.336-.106-.351-.255-.63-.448-.837a1.54 1.54 0 00-.693-.433 3.07 3.07 0 00-.895-.123 2.23 2.23 0 00-1.097.289 2.838 2.838 0 00-.917.837c-.265.366-.477.813-.635 1.343s-.238 1.131-.238 1.804v9.484h-2.425v-21.379h2.425v7.45zM262.699 112.442c1.819 0 3.2.66 4.143 1.979.943 1.318 1.415 3.368 1.415 6.149 0 2.791-.472 4.843-1.415 6.156-.942 1.313-2.323 1.971-4.143 1.971-1.818 0-3.2-.657-4.143-1.971-.943-1.313-1.415-3.365-1.415-6.156 0-2.781.472-4.831 1.415-6.149.943-1.318 2.325-1.979 4.143-1.979zm0 2.152c-1.021 0-1.778.452-2.273 1.356-.496.905-.743 2.257-.743 4.057v1.141c0 1.79.247 3.138.743 4.042.495.904 1.253 1.356 2.273 1.356 1.011 0 1.766-.452 2.267-1.356.5-.904.75-2.252.75-4.042v-1.141c0-1.8-.25-3.151-.75-4.057-.501-.904-1.256-1.356-2.267-1.356zM276.183 112.442c.164 0 .313.015.447.044.135.028.255.058.361.086l.347.116v2.512h-.809c-.385 0-.751.063-1.098.188-.346.125-.651.33-.916.613-.265.284-.477.659-.636 1.126-.158.467-.237 1.047-.237 1.739v9.484h-2.426v-15.547h1.833l.332 2.035h.174c.096-.298.217-.589.36-.873.145-.284.322-.539.534-.766.212-.226.46-.408.744-.548.285-.138.615-.209.99-.209zM284.107 112.442c1.568 0 2.743.383 3.522 1.148.779.765 1.169 1.835 1.169 3.212v8.719c0 .365.087.628.26.786a.836.836 0 00.578.238h.938v1.689a2.938 2.938 0 01-.606.23 3.68 3.68 0 01-.996.116c-.636 0-1.165-.176-1.588-.527-.424-.352-.713-.815-.866-1.393h-.145a4.251 4.251 0 01-1.581 1.501c-.649.355-1.383.534-2.201.534a5.74 5.74 0 01-.837-.065c-.299-.043-.6-.12-.902-.23s-.597-.27-.881-.477a3.136 3.136 0 01-.75-.794 4.095 4.095 0 01-.521-1.177c-.13-.462-.194-1.005-.194-1.631 0-1.068.197-1.941.592-2.62s.943-1.208 1.646-1.588 1.535-.64 2.497-.779c.963-.14 2.007-.21 3.133-.21v-2.006c0-.376-.034-.717-.101-1.025a1.853 1.853 0 00-.376-.794 1.814 1.814 0 00-.75-.52c-.318-.125-.728-.188-1.228-.188-.462 0-.845.072-1.147.217a1.976 1.976 0 00-.729.57c-.183.235-.313.5-.39.794a3.48 3.48 0 00-.115.888v.346h-2.396a1.21 1.21 0 01-.028-.273v-.361c0-.712.122-1.34.368-1.884a3.66 3.66 0 011.032-1.357c.442-.36.969-.632 1.58-.815a7.029 7.029 0 012.013-.274zm2.267 8.85c-.789 0-1.509.036-2.158.108-.649.071-1.208.214-1.675.426s-.829.505-1.09.88c-.26.376-.39.866-.39 1.473 0 .886.179 1.501.534 1.848.356.347.876.52 1.56.52.385 0 .767-.079 1.147-.238.38-.158.724-.396 1.032-.714.308-.318.558-.717.75-1.198s.289-1.044.289-1.689v-1.416zM309.441 128.351h-1.833l-.317-1.805h-.159c-.366.722-.842 1.261-1.429 1.617a3.726 3.726 0 01-1.964.534c-.741 0-1.41-.157-2.006-.47-.598-.313-1.104-.801-1.523-1.465s-.738-1.509-.96-2.533c-.222-1.025-.332-2.254-.332-3.688 0-1.405.123-2.617.368-3.638.245-1.02.577-1.859.996-2.519s.909-1.148 1.473-1.466a3.636 3.636 0 011.812-.477c.751 0 1.422.162 2.014.484s1.022.771 1.292 1.35h.145v-7.305h2.425v21.381zm-5.211-13.757c-.462 0-.866.101-1.213.303s-.635.521-.866.953c-.23.433-.404.994-.52 1.682-.115.688-.173 1.514-.173 2.476v1.141c0 .962.058 1.785.173 2.469.115.683.289 1.241.52 1.674.231.434.52.751.866.953s.751.303 1.213.303c.942 0 1.643-.452 2.101-1.356.456-.904.686-2.252.686-4.042v-1.011c0-3.698-.929-5.545-2.787-5.545zM318.305 112.442c.847 0 1.593.138 2.237.412s1.179.705 1.603 1.292c.423.587.743 1.342.96 2.266s.324 2.036.324 3.335v1.545h-8.43c.01 1.81.291 3.137.845 3.983.553.848 1.402 1.271 2.548 1.271.385 0 .738-.079 1.061-.238.322-.158.602-.39.837-.692.236-.304.419-.672.549-1.104s.195-.919.195-1.458h2.396c0 .876-.122 1.663-.368 2.36-.245.698-.592 1.29-1.039 1.775a4.512 4.512 0 01-1.609 1.119c-.626.26-1.318.39-2.079.39-.962 0-1.809-.151-2.54-.455-.731-.303-1.345-.784-1.841-1.443s-.868-1.501-1.118-2.526c-.251-1.024-.376-2.259-.376-3.702 0-2.781.488-4.831 1.466-6.149.974-1.32 2.434-1.981 4.379-1.981zm0 2.152c-.539 0-1.003.097-1.394.289-.39.192-.714.479-.974.858-.26.381-.462.852-.606 1.415a11.64 11.64 0 00-.304 1.97h5.861c0-1.491-.219-2.619-.657-3.385-.437-.764-1.08-1.147-1.926-1.147zM335.338 109.873h-2.41v-2.901h2.41v2.901zm0 18.478h-2.41v-15.547h2.41v15.547zM351.578 112.442c.549 0 1.047.082 1.494.246.447.163.832.433 1.154.809.323.375.573.861.751 1.457.178.598.268 1.328.268 2.194v11.202h-2.426v-11.028c0-.539-.05-.984-.151-1.336-.101-.351-.243-.63-.426-.837s-.395-.352-.635-.433a2.453 2.453 0 00-.794-.123c-.366 0-.71.097-1.032.289a2.71 2.71 0 00-.852.837c-.246.366-.438.813-.578 1.343s-.209 1.131-.209 1.804v9.484h-2.425v-11.028c0-.539-.051-.984-.152-1.336-.101-.351-.24-.63-.418-.837a1.417 1.417 0 00-.636-.433 2.51 2.51 0 00-.801-.123c-.366 0-.71.097-1.032.289s-.606.472-.852.837c-.245.366-.44.813-.585 1.343s-.216 1.131-.216 1.804v9.484h-2.426v-15.547h1.833l.332 1.79h.174c.413-.77.921-1.321 1.522-1.653s1.277-.498 2.028-.498c.76 0 1.432.176 2.014.527s1.013.927 1.292 1.725c.424-.74.972-1.301 1.646-1.682a4.302 4.302 0 012.138-.57zM364.513 112.442c.731 0 1.396.159 1.992.477s1.102.809 1.516 1.473c.413.664.733 1.509.96 2.533.226 1.025.339 2.25.339 3.674 0 1.415-.12 2.633-.36 3.652-.241 1.021-.57 1.86-.989 2.519-.419.66-.909 1.146-1.473 1.458a3.67 3.67 0 01-1.812.47c-.76 0-1.437-.149-2.028-.447-.592-.299-1.022-.723-1.292-1.271h-.144v6.481h-2.426v-20.657h1.833l.332 1.79h.145c.366-.702.845-1.236 1.437-1.603a3.677 3.677 0 011.97-.549zm-.52 2.152c-.934 0-1.629.452-2.086 1.356-.458.905-.686 2.257-.686 4.057v1.141c0 1.79.228 3.138.686 4.042.457.904 1.152 1.356 2.086 1.356.462 0 .868-.101 1.22-.303.351-.202.642-.52.873-.953.23-.433.404-.991.52-1.674.115-.684.173-1.507.173-2.469v-1.141c0-.962-.058-1.787-.173-2.476-.115-.688-.289-1.249-.52-1.682-.231-.433-.522-.751-.873-.953a2.415 2.415 0 00-1.22-.301zM377.244 112.442c.164 0 .313.015.447.044.135.028.255.058.361.086l.347.116v2.512h-.809c-.385 0-.751.063-1.098.188-.346.125-.651.33-.916.613-.265.284-.477.659-.636 1.126-.158.467-.237 1.047-.237 1.739v9.484h-2.426v-15.547h1.833l.332 2.035h.174c.096-.298.217-.589.36-.873.145-.284.322-.539.534-.766.212-.226.46-.408.744-.548.285-.138.615-.209.99-.209zM382.47 109.873h-2.41v-2.901h2.41v2.901zm0 18.478h-2.41v-15.547h2.41v15.547zM398.71 112.442c.549 0 1.047.082 1.494.246.447.163.832.433 1.154.809.323.375.573.861.751 1.457.178.598.268 1.328.268 2.194v11.202h-2.426v-11.028c0-.539-.05-.984-.151-1.336-.101-.351-.243-.63-.426-.837s-.395-.352-.635-.433a2.453 2.453 0 00-.794-.123c-.366 0-.71.097-1.032.289a2.71 2.71 0 00-.852.837c-.246.366-.438.813-.578 1.343s-.209 1.131-.209 1.804v9.484h-2.425v-11.028c0-.539-.051-.984-.152-1.336-.101-.351-.24-.63-.418-.837a1.417 1.417 0 00-.636-.433 2.51 2.51 0 00-.801-.123c-.366 0-.71.097-1.032.289s-.606.472-.852.837c-.245.366-.44.813-.585 1.343s-.216 1.131-.216 1.804v9.484h-2.426v-15.547h1.833l.332 1.79h.174c.413-.77.921-1.321 1.522-1.653s1.277-.498 2.028-.498c.76 0 1.432.176 2.014.527s1.013.927 1.292 1.725c.424-.74.972-1.301 1.646-1.682a4.302 4.302 0 012.138-.57zM408.049 109.873h-2.41v-2.901h2.41v2.901zm0 18.478h-2.41v-15.547h2.41v15.547zM416.277 112.442c.164 0 .313.015.447.044.135.028.255.058.361.086l.347.116v2.512h-.809c-.385 0-.751.063-1.098.188-.346.125-.651.33-.916.613-.265.284-.477.659-.636 1.126-.158.467-.237 1.047-.237 1.739v9.484h-2.426v-15.547h1.833l.332 2.035h.174c.096-.298.217-.589.36-.873.145-.284.322-.539.534-.766.212-.226.46-.408.744-.548.285-.138.615-.209.99-.209zM431.435 112.442c.847 0 1.593.138 2.237.412s1.179.705 1.603 1.292c.423.587.743 1.342.96 2.266s.324 2.036.324 3.335v1.545h-8.43c.01 1.81.291 3.137.845 3.983.553.848 1.402 1.271 2.548 1.271.385 0 .738-.079 1.061-.238.322-.158.602-.39.837-.692.236-.304.419-.672.549-1.104s.195-.919.195-1.458h2.396c0 .876-.122 1.663-.368 2.36-.245.698-.592 1.29-1.039 1.775a4.512 4.512 0 01-1.609 1.119c-.626.26-1.318.39-2.079.39-.962 0-1.809-.151-2.54-.455-.731-.303-1.345-.784-1.841-1.443s-.868-1.501-1.118-2.526c-.251-1.024-.376-2.259-.376-3.702 0-2.781.488-4.831 1.466-6.149.974-1.32 2.434-1.981 4.379-1.981zm0 2.152c-.539 0-1.003.097-1.394.289-.39.192-.714.479-.974.858-.26.381-.462.852-.606 1.415a11.64 11.64 0 00-.304 1.97h5.861c0-1.491-.219-2.619-.657-3.385-.437-.764-1.08-1.147-1.926-1.147zM445.696 112.442c.587 0 1.116.082 1.588.246.472.163.873.433 1.205.809.332.375.59.861.772 1.457.183.598.274 1.328.274 2.194v11.202h-2.425v-11.028c0-.539-.054-.984-.159-1.336-.105-.351-.255-.63-.447-.837s-.424-.352-.693-.433a3.064 3.064 0 00-.895-.123c-.385 0-.751.097-1.098.289a2.845 2.845 0 00-.916.837 4.454 4.454 0 00-.636 1.343c-.158.529-.237 1.131-.237 1.804v9.484h-2.426v-15.547h1.833l.332 1.79h.174c.433-.77.972-1.321 1.616-1.653s1.359-.498 2.138-.498zM464.708 107.708c.789 0 1.509.12 2.158.361a4.56 4.56 0 011.675 1.067c.467.472.827 1.054 1.083 1.747.255.693.382 1.492.382 2.396 0 .597-.067 1.128-.202 1.595s-.319.883-.556 1.249c-.235.365-.515.688-.837.967s-.671.524-1.047.736v.115a4.31 4.31 0 012.136 1.718c.27.414.479.891.628 1.43s.224 1.146.224 1.818c0 .905-.137 1.716-.411 2.433s-.657 1.323-1.147 1.819c-.491.495-1.078.875-1.762 1.14s-1.429.397-2.237.397c-.924 0-1.742-.145-2.454-.434a4.874 4.874 0 01-1.797-1.227 5.176 5.176 0 01-1.098-1.92c-.245-.751-.367-1.588-.367-2.512v-.231h2.497v.332c0 1.261.257 2.216.772 2.866.515.649 1.272.974 2.273.974.48 0 .921-.072 1.32-.216a2.521 2.521 0 001.025-.687c.283-.313.505-.709.664-1.19.158-.481.238-1.054.238-1.718 0-.722-.094-1.313-.282-1.775-.188-.462-.438-.83-.75-1.104a2.624 2.624 0 00-1.068-.57 4.886 4.886 0 00-1.249-.159h-1.674v-2.15h1.746c.385 0 .756-.072 1.111-.217a2.53 2.53 0 00.932-.656c.265-.294.477-.664.635-1.112.159-.447.238-.969.238-1.565 0-.626-.074-1.162-.224-1.61a3.169 3.169 0 00-.606-1.104c-.255-.289-.551-.501-.888-.636s-.688-.202-1.054-.202c-.404 0-.779.072-1.126.217s-.645.368-.895.671c-.251.304-.445.687-.585 1.148s-.209 1.005-.209 1.631v.26h-2.469v-.52c0-.847.13-1.612.39-2.296a5.179 5.179 0 011.083-1.753 4.754 4.754 0 011.659-1.126 5.575 5.575 0 012.125-.397zM473.601 128.351V108.07h6.308c1.193 0 2.265.207 3.212.62a6.318 6.318 0 012.418 1.855c.664.822 1.172 1.848 1.523 3.074.351 1.228.526 2.659.526 4.295 0 1.732-.176 3.25-.526 4.554-.352 1.305-.859 2.392-1.523 3.263s-1.47 1.525-2.418 1.963c-.947.438-2.019.657-3.212.657h-6.308zm2.612-17.914v15.547h3.45c.799 0 1.519-.151 2.158-.455a4.364 4.364 0 001.639-1.364c.452-.606.801-1.368 1.046-2.288.246-.919.368-1.994.368-3.226v-1.473c0-1.126-.122-2.112-.368-2.959-.245-.847-.594-1.55-1.046-2.108a4.303 4.303 0 00-1.639-1.256c-.64-.278-1.359-.418-2.158-.418h-3.45z"/></g></svg>