<svg xmlns="http://www.w3.org/2000/svg" viewBox="0 0 490 129" width="418" height="100"><style>.shp2{fill:#00b5a8}</style><path fill="#09887d" aria-label="DMakerNow" d="M180.61 91h14.22q6.16 0 10.29-3.46Q209.3 84 211.46 78q2.16-6 2.16-13.46 0-7.31-1.91-13.16-1.91-5.85-5.92-9.23-4-3.46-10.52-3.46h-14.66V91zm4.8-47.08h10.04q4.56 0 7.45 2.69 2.96 2.69 4.37 7.39 1.48 4.61 1.48 10.61 0 6.62-1.79 11.39-1.72 4.77-4.8 7.38-3.08 2.54-7.26 2.54h-9.49v-42zm53.7 29.85l1.72-.39 11.7-21.77V91h4.93V38.69h-3.08l-14.6 26.69-15.02-26.69h-2.83V91h4.8V51.46l12.38 22.31zm31.59 6.61q0-2.92 1.53-5.07 1.61-2.24 4.62-2.24h7.82v8.54q-1.54 2.24-3.69 3.85-2.16 1.62-4.74 1.62-1.91 0-3.14-1-1.23-1-1.85-2.54-.55-1.62-.55-3.16zM268.11 56l1.42 4.53q1.66-.84 3.63-1.69 2.03-.84 4.92-.84 3.58 0 5.05 2.53 1.54 2.54 1.54 6.39V69h-7.69q-4.81 0-7.82 3-3.02 2.92-3.02 8.38 0 4.93 2.52 8.24 2.53 3.3 7.76 3.3 2.47 0 4.93-1.46 2.52-1.46 3.94-3.23l.61 3.77h3.7V65.3q0-3.69-1.48-6.53-1.48-2.85-4.12-4.47-2.59-1.61-6.04-1.61-1.23 0-3.14.46-1.91.38-3.75 1.15-1.79.7-2.96 1.7zm29.56 35h4.8V77l4.19-5.16L316.51 91h5.72l-12.31-23.16 9.11-11.23-2.95-3.92-13.61 17v-33l-4.8.84V91zm31.58-17.69h21.68v-.54q0-5.62-1.36-10.16-1.29-4.54-4.12-7.23-2.77-2.69-7.27-2.69-4.43 0-7.57 2.54-3.08 2.46-4.74 6.84-1.6 4.39-1.6 10.16 0 5.85 1.72 10.31 1.72 4.46 5.17 6.92 3.51 2.46 8.75 2.46 2.21 0 4.06-.46 1.91-.54 3.51-1.38 1.66-.93 3.08-1.93l-1.6-4.46q-2.34 1.46-4.44 2.39-2.09.84-4.67.84-3.7 0-5.98-1.77-2.28-1.77-3.38-4.84-1.05-3.08-1.24-7zm16.88-4.16h-16.75q.31-3.38 1.29-5.92 1.05-2.54 2.83-3.93 1.85-1.46 4.5-1.46 2.58 0 4.25 1.46 1.72 1.39 2.64 3.93.93 2.54 1.24 5.92zM356.84 91h4.8V65.3q1.36-1.69 3.14-3.23 1.79-1.54 3.76-2.54 2.03-1 3.76-1l-1.17-4.84q-1.61 0-3.51 1-1.85 1-3.58 2.46-1.66 1.38-2.83 2.54l-1.48-6h-2.89V91z"/><path fill="#2a2b33" aria-label="DMakerNow" d="M378.64 91h4.8V50l1.6 3.38L406.41 91h3.88V38.69h-4.93v40.54l-2.52-5.16-20.38-35.38h-3.82V91zm53.63 1q-4.43.08-7.64-2.46-3.2-2.62-4.92-7-1.66-4.46-1.66-10.31.06-5.69 1.78-10.08 1.79-4.38 5.05-6.92 3.33-2.54 7.82-2.54 4.5 0 7.7 2.46t4.92 6.85q1.73 4.38 1.73 10.46 0 5.69-1.85 10.08-1.78 4.38-5.11 6.92-3.26 2.54-7.82 2.54zm.12-5.15q3.08 0 5.24-1.93 2.15-1.92 3.26-5.15 1.17-3.23 1.17-7.23 0-4.23-1.11-7.54-1.04-3.31-3.14-5.23-2.03-1.93-5.17-1.93-3.02 0-5.17 1.93-2.16 1.92-3.33 5.15-1.11 3.23-1.17 7.23 0 4.16 1.05 7.54 1.05 3.31 3.14 5.23 2.15 1.93 5.23 1.93zM476.17 91h4.74l8.87-37.31h-4.92l-6.29 28.62-6.65-28.62H467l-6.28 28.62-6.65-29.78-4.44 2.39L458.25 91h4.81l6.34-28.39L476.17 91z"/><path d="M124.61 24.1v80.18L64.16 83.93V44.45l60.45-20.35z" fill="#09887d"/><path d="M124.61 104.28L64.16 83.93v40.09l60.45-19.74z" fill="#06635c"/><path class="shp2" d="M64.16 44.45l60.45-20.35L64.16 3.47v40.98z"/><path d="M3.02 24.1v80.18l61.14-20.35V44.45L3.02 24.1z" fill="#3dc2a8"/><path class="shp2" d="M3.02 104.28l61.14-20.35v40.09L3.02 104.28z"/><path d="M64.16 44.45L3.02 24.1 64.16 3.47v40.98z" fill="#18baa8"/><path fill="#09887d" aria-label="3" d="M157.68 37.66q-3.84 0-6.98 1.44-3.14 1.44-5.77 3.52l2.5 4.24q1.54-1.36 4.1-2.64 2.63-1.36 5.96-1.36 2.5 0 4.29 1.12 1.8 1.12 2.76 2.96 1.02 1.84 1.02 4.09 0 4.08-2.88 6.64-2.82 2.56-7.82 2.56h-2.75l.83 4.72h1.54q6.28 0 9.03 2.88 2.82 2.8 2.82 7.53 0 2.96-1.41 5.12-1.34 2.16-3.52 3.28-2.12 1.12-4.49 1.12-3.33 0-5.63-.88-2.25-.96-4.55-2.72l-2.63 4.4q2.37 1.6 5.7 3.04 3.33 1.36 6.92 1.36 4.49 0 7.75-1.92 3.27-2 5.06-5.36 1.86-3.36 1.86-7.6 0-3.29-1.02-5.93-1.03-2.72-2.76-4.48-1.66-1.76-3.78-2.32 1.86-.8 3.33-2.48 1.54-1.68 2.5-4 .96-2.32.96-5.12 0-3.45-1.47-6.41-1.41-3.04-4.29-4.88-2.89-1.92-7.18-1.92z"/><path fill="#576366" aria-label="Es la hora de crear algo increible" d="M145.63 122h10.31l-.16-1.33h-8.5v-7.34h6.51l-.14-1.19h-6.37v-7.02h8.05l-.13-1.2h-9.57V122zm12.46-1.89l-.53 1.23q.51.31 1.22.55.75.22 1.49.35.77.11 1.31.11 2.47 0 3.77-.96 1.33-.98 1.33-2.69 0-1.03-.64-1.78-.64-.74-1.62-1.27-.98-.56-2.05-.93-1.35-.46-2.34-1.01-.98-.59-1.01-1.49 0-.93.88-1.52.88-.61 2.23-.61 1.2 0 2.02.32.85.32 1.39.59l.53-1.17q-.43-.32-1.15-.56-.71-.24-1.46-.37-.71-.14-1.27-.14-2.18 0-3.46.96-1.27.93-1.27 2.6 0 1.01.61 1.73.64.72 1.59 1.2.96.48 1.97.82.93.32 1.73.72.79.4 1.27.9.51.51.51 1.15 0 .71-.45 1.22-.43.48-1.23.72-.77.24-1.83.24-.67 0-1.3-.14-.64-.13-1.2-.32-.56-.21-1.04-.45zm17.76 1.89h1.65v-18.77l-1.65.27V122zm6.64-3.62q0-1.11.75-1.94.74-.82 2.18-.82h3.64v3.27q-.66.82-1.67 1.46-.99.64-2.24.64-.95 0-1.54-.4-.58-.4-.85-1.01t-.27-1.2zm-.71-8.5l.5 1.17q.69-.32 1.49-.61.8-.3 2.21-.3 1.57 0 2.31.88.77.88.77 2.21v1.3h-3.59q-2.02-.03-3.32 1.01-1.28 1.01-1.28 2.84 0 1.68 1.07 2.82 1.09 1.15 3.27 1.15 1.14 0 2.23-.54 1.09-.55 1.7-1.19l.21 1.38h1.36v-9.04q0-1.27-.59-2.2-.58-.96-1.67-1.47-1.06-.53-2.55-.53-.53 0-1.33.16-.77.14-1.54.37-.75.24-1.25.59zm20.41 1.2l.03 1.72q.61-.77 1.41-1.35.82-.59 1.64-.93.86-.35 1.52-.35 1.41 0 1.94.93.56.93.56 2.26v8.61h1.65v-8.93q0-1.25-.43-2.2-.4-.96-1.27-1.52-.88-.56-2.26-.56-.8 0-1.71.32-.9.29-1.72.83-.8.53-1.36 1.17zM200.57 122h1.65v-18.77l-1.65.27V122zm18.85.35q-1.86.02-3.19-.86-1.33-.9-2.05-2.44-.69-1.57-.69-3.56.02-1.92.77-3.43.74-1.54 2.13-2.42 1.38-.88 3.27-.88 1.91 0 3.24.83 1.33.82 2.02 2.36.72 1.52.72 3.67 0 1.91-.78 3.43-.74 1.51-2.12 2.39-1.38.88-3.32.91zm.08-1.39q1.43 0 2.41-.69.99-.72 1.52-1.91.53-1.22.53-2.71 0-1.6-.48-2.82-.48-1.25-1.43-1.97-.96-.72-2.42-.72-1.41 0-2.42.72-.98.69-1.52 1.89-.5 1.2-.53 2.71 0 1.57.48 2.82.48 1.25 1.44 1.97.98.71 2.42.71zm8.79 1.04h1.65v-9.2q.51-.56 1.25-1.09.77-.56 1.65-.93.9-.37 1.7-.37l-.45-1.3q-.67 0-1.49.34-.8.35-1.54.83-.72.48-1.2.87l-.48-2.04h-1.09V122zm9.52-3.62q0-1.11.74-1.94.75-.82 2.18-.82h3.65v3.27q-.67.82-1.68 1.46-.98.64-2.23.64-.96 0-1.54-.4-.59-.4-.85-1.01-.27-.61-.27-1.2zm-.72-8.5l.51 1.17q.69-.32 1.49-.61.79-.3 2.2-.3 1.57 0 2.31.88.78.88.78 2.21v1.3h-3.59q-2.02-.03-3.33 1.01-1.27 1.01-1.27 2.84 0 1.68 1.06 2.82 1.09 1.15 3.27 1.15 1.14 0 2.23-.54 1.09-.55 1.71-1.19l.21 1.38h1.35v-9.04q0-1.27-.58-2.2-.59-.96-1.68-1.47-1.06-.53-2.55-.53-.53 0-1.33.16-.77.14-1.54.37-.74.24-1.25.59zm26.85-6.38v16.56l.58 1.94h1.09v-18.74l-1.67.24zm.98 16.8l-.53-1.2q-.69.8-1.57 1.33-.87.53-2.15.53-1.44 0-2.37-.69-.93-.72-1.38-1.94-.42-1.25-.42-2.82.02-1.51.47-2.71.46-1.22 1.39-1.94.95-.72 2.36-.72 1.38 0 2.21.56.82.53 1.49 1.15l.53-1.07q-.51-.48-1.14-.93-.64-.48-1.39-.77-.74-.32-1.62-.32-1.88 0-3.24.91-1.33.87-2.02 2.42-.69 1.51-.72 3.45 0 1.99.67 3.54.69 1.54 1.99 2.41 1.33.86 3.22.86.82 0 1.59-.24.77-.27 1.44-.72.66-.48 1.19-1.09zm5.29-4.65h9.57v-.14q0-1.94-.58-3.45-.56-1.54-1.76-2.42-1.17-.88-3.05-.88-1.89 0-3.19.88-1.31.88-1.97 2.39-.67 1.52-.69 3.46 0 1.99.69 3.56.72 1.54 2.15 2.42 1.46.88 3.7.88 1.01 0 1.78-.16.79-.19 1.46-.46.66-.29 1.28-.61l-.56-1.22q-.99.51-1.97.82-.96.3-2.07.3-1.73 0-2.79-.69-1.04-.72-1.52-1.92-.45-1.22-.48-2.76zm7.9-1.15h-7.84q.13-1.27.58-2.26.48-.98 1.33-1.54.85-.56 2.13-.56 1.27 0 2.07.56.8.56 1.19 1.54.43.99.54 2.26zm19.88 6.76l-.53-1.2q-.69.35-1.44.64-.72.26-2.12.26-1.44 0-2.42-.71-.96-.72-1.44-1.97t-.48-2.82q.03-1.51.53-2.71.54-1.2 1.52-1.89 1.01-.72 2.42-.72 1.38 0 2.13.3.77.29 1.43.61l.53-1.17q-.5-.35-1.25-.59-.74-.23-1.49-.37-.74-.16-1.27-.16-1.89 0-3.3.88-1.38.88-2.15 2.39-.75 1.52-.77 3.46 0 1.99.72 3.56.71 1.54 2.07 2.42 1.36.88 3.24.88.56 0 1.3-.14.75-.13 1.49-.37.75-.27 1.28-.58zm2.68.74h1.65v-9.2q.51-.56 1.25-1.09.77-.56 1.65-.93.9-.37 1.7-.37l-.45-1.3q-.67 0-1.49.34-.8.35-1.54.83-.72.48-1.2.87l-.48-2.04h-1.09V122zm9.12-6.35h9.57v-.14q0-1.94-.58-3.45-.56-1.54-1.76-2.42-1.17-.88-3.06-.88-1.88 0-3.19.88-1.3.88-1.96 2.39-.67 1.52-.69 3.46 0 1.99.69 3.56.72 1.54 2.15 2.42 1.46.88 3.7.88 1.01 0 1.78-.16.79-.19 1.46-.46.66-.29 1.27-.61l-.55-1.22q-.99.51-1.97.82-.96.3-2.07.3-1.73 0-2.8-.69-1.03-.72-1.51-1.92-.45-1.22-.48-2.76zm7.9-1.15h-7.85q.14-1.27.59-2.26.48-.98 1.33-1.54.85-.56 2.12-.56 1.28 0 2.08.56t1.19 1.54q.43.99.54 2.26zm5.6 3.88q0-1.11.75-1.94.74-.82 2.18-.82h3.64v3.27q-.66.82-1.67 1.46-.99.64-2.24.64-.95 0-1.54-.4-.58-.4-.85-1.01t-.27-1.2zm-.71-8.5l.5 1.17q.69-.32 1.49-.61.8-.3 2.21-.3 1.56 0 2.31.88.77.88.77 2.21v1.3h-3.59q-2.02-.03-3.32 1.01-1.28 1.01-1.28 2.84 0 1.68 1.07 2.82 1.09 1.15 3.27 1.15 1.14 0 2.23-.54 1.09-.55 1.7-1.19l.21 1.38h1.36v-9.04q0-1.27-.59-2.2-.58-.96-1.67-1.47-1.06-.53-2.55-.53-.54 0-1.33.16-.77.14-1.54.37-.75.24-1.25.59zM334.86 122h1.64v-9.2q.51-.56 1.25-1.09.78-.56 1.65-.93.91-.37 1.7-.37l-.45-1.3q-.66 0-1.49.34-.79.35-1.54.83-.72.48-1.19.87l-.48-2.04h-1.09V122zm15.76-3.62q0-1.11.74-1.94.75-.82 2.18-.82h3.64v3.27q-.66.82-1.67 1.46-.98.64-2.23.64-.96 0-1.54-.4-.59-.4-.85-1.01-.27-.61-.27-1.2zm-.72-8.5l.51 1.17q.69-.32 1.49-.61.79-.3 2.2-.3 1.57 0 2.31.88.77.88.77 2.21v1.3h-3.58q-2.02-.03-3.33 1.01-1.27 1.01-1.27 2.84 0 1.68 1.06 2.82 1.09 1.15 3.27 1.15 1.14 0 2.23-.54 1.09-.55 1.7-1.19l.22 1.38h1.35v-9.04q0-1.27-.58-2.2-.59-.96-1.68-1.47-1.06-.53-2.55-.53-.53 0-1.33.16-.77.14-1.54.37-.74.24-1.25.59zM362.45 122h1.65v-18.77l-1.65.27V122zm15.36 1.65v-14.54h-1.09l-.58 1.49v13.02q0 1.6-1.12 2.37-1.12.74-2.74.74-1.35-.03-2.26-.32-.9-.29-1.56-.61l-.51 1.22q.4.24.98.46.59.18 1.23.34.63.13 1.19.21.59.08.99.08 1.7 0 2.92-.58 1.22-.59 1.89-1.6.66-1.01.66-2.28zm-.69-3.35l-.53-1.2q-.69.8-1.57 1.33-.88.53-2.15.53-1.44 0-2.37-.69-.93-.72-1.38-1.94-.43-1.25-.43-2.82.03-1.51.48-2.71.45-1.22 1.39-1.94.95-.72 2.36-.72 1.38 0 2.21.56.82.53 1.49 1.15l.53-1.07q-.51-.48-1.15-.93-.63-.48-1.38-.77-.74-.32-1.62-.32-1.89 0-3.24.91-1.33.87-2.02 2.42-.69 1.51-.72 3.45 0 1.99.66 3.54.7 1.54 2 2.41 1.33.86 3.21.86.83 0 1.6-.24.77-.27 1.43-.72.67-.48 1.2-1.09zm9.44 2.05q-1.86.02-3.19-.86-1.33-.9-2.05-2.44-.69-1.57-.69-3.56.03-1.92.77-3.43.74-1.54 2.13-2.42 1.38-.88 3.27-.88 1.91 0 3.24.83 1.33.82 2.02 2.36.72 1.52.72 3.67 0 1.91-.77 3.43-.75 1.51-2.13 2.39-1.38.88-3.32.91zm.08-1.39q1.43 0 2.42-.69.98-.72 1.51-1.91.53-1.22.53-2.71 0-1.6-.48-2.82-.47-1.25-1.43-1.97t-2.42-.72q-1.41 0-2.42.72-.98.69-1.51 1.89-.51 1.2-.54 2.71 0 1.57.48 2.82.48 1.25 1.44 1.97.98.71 2.42.71zm15.04 1.04h1.68v-12.89h-1.68V122zm.83-15.71q.5 0 .87-.34.4-.38.4-.91t-.4-.88q-.37-.37-.87-.37-.56 0-.91.37-.34.35-.34.88t.34.91q.35.34.91.34zm4.3 15.71h1.65v-9.2q.61-.77 1.41-1.35.82-.59 1.65-.93.85-.35 1.51-.35 1.41 0 1.94.93.56.93.56 2.26v8.61h1.65v-8.93q0-1.25-.43-2.2-.4-.96-1.27-1.52-.88-.56-2.26-.56-.8 0-1.7.32-.91.29-1.73.83-.8.53-1.36 1.17l-.26-1.97h-1.36V122zm23.02-.74l-.53-1.2q-.69.35-1.44.64-.71.26-2.12.26-1.44 0-2.42-.71-.96-.72-1.44-1.97t-.48-2.82q.03-1.51.54-2.71.53-1.2 1.51-1.89 1.01-.72 2.42-.72 1.38 0 2.13.3.77.29 1.43.61l.53-1.17q-.5-.35-1.25-.59-.74-.23-1.48-.37-.75-.16-1.28-.16-1.89 0-3.3.88-1.38.88-2.15 2.39-.74 1.52-.77 3.46 0 1.99.72 3.56.72 1.54 2.07 2.42 1.36.88 3.24.88.56 0 1.31-.14.74-.13 1.48-.37.75-.27 1.28-.58zm2.69.74h1.64v-9.2q.51-.56 1.25-1.09.77-.56 1.65-.93.9-.37 1.7-.37l-.45-1.3q-.66 0-1.49.34-.8.35-1.54.83-.72.48-1.2.87l-.47-2.04h-1.09V122zm9.11-6.35h9.57v-.14q0-1.94-.58-3.45-.56-1.54-1.76-2.42-1.17-.88-3.05-.88-1.89 0-3.19.88-1.31.88-1.97 2.39-.67 1.52-.69 3.46 0 1.99.69 3.56.72 1.54 2.15 2.42 1.46.88 3.7.88 1.01 0 1.78-.16.8-.19 1.46-.46.66-.29 1.28-.61l-.56-1.22q-.99.51-1.97.82-.96.3-2.07.3-1.73 0-2.79-.69-1.04-.72-1.52-1.92-.45-1.22-.48-2.76zm7.9-1.15h-7.84q.13-1.27.58-2.26.48-.98 1.33-1.54.85-.56 2.13-.56 1.27 0 2.07.56.8.56 1.2 1.54.42.99.53 2.26zm4.33 7.5h1.67v-12.89h-1.67V122zm.82-15.71q.51 0 .88-.34.4-.38.4-.91t-.4-.88q-.37-.37-.88-.37-.55 0-.9.37-.35.35-.35.88t.35.91q.35.34.9.34zm4.58 15.71h1.09l.55-1.78v-16.99l-1.64.27V122zm.79-11.19l.53 1.2q.7-.8 1.57-1.33.88-.54 2.16-.54 1.46 0 2.36.72.93.69 1.36 1.92.45 1.22.45 2.81 0 1.49-.48 2.72-.45 1.22-1.38 1.94-.93.71-2.37.71-1.38 0-2.2-.53-.83-.56-1.49-1.17l-.53 1.07q.53.47 1.14.95.64.45 1.38.77.75.3 1.62.3 1.92 0 3.25-.88 1.33-.91 2.02-2.45.71-1.54.71-3.45 0-2.02-.69-3.54-.66-1.54-1.96-2.39-1.31-.88-3.22-.88-.82 0-1.6.27-.77.24-1.43.72-.67.45-1.2 1.06zM473.08 122h1.65v-18.77l-1.65.27V122zm6.24-6.35h9.57v-.14q0-1.94-.58-3.45-.56-1.54-1.76-2.42-1.17-.88-3.05-.88-1.89 0-3.19.88t-1.97 2.39q-.66 1.52-.69 3.46 0 1.99.69 3.56.72 1.54 2.15 2.42 1.47.88 3.7.88 1.01 0 1.78-.16.8-.19 1.46-.46.67-.29 1.28-.61l-.56-1.22q-.98.51-1.97.82-.95.3-2.07.3-1.73 0-2.79-.69-1.04-.72-1.52-1.92-.45-1.22-.48-2.76zm7.9-1.15h-7.84q.13-1.27.58-2.26.48-.98 1.33-1.54.85-.56 2.13-.56 1.27 0 2.07.56.8.56 1.2 1.54.42.99.53 2.26z"/></svg>