<svg version="1.2" baseProfile="tiny-ps" xmlns="http://www.w3.org/2000/svg" width="350" height="400"><style></style><path id="Shape 2" d="M4 102l48 29 1 137 118 69v56L4 296V102z" fill="#343638"/><path id="Shape 2" d="M174 337v56l168-97V103l-49 28-1 138-118 68z" fill="#3a3e3d"/><path id="Shape 2" d="M174 63v56l67 40 1 78 48 28V131L174 63z" fill="#51bfa9"/><path id="Shape 2" d="M55 131v133l48-27v-79.01L171 119V64L55 131z" fill="#25605c"/><path id="Shape 1" d="M5 100l48 28 119-68 119 68 49-28L173 3 5 100z" fill="#757c7d"/><path id="Shape 2" d="M56 266l49-28 68 41 68-40 48 28-117 68-116-69z" fill="#35887f"/></svg>