<svg version="1.2" baseProfile="tiny-ps" xmlns="http://www.w3.org/2000/svg" width="1134" height="397"><style></style><path id="3DMakerNow" fill="#35887f" aria-label="3DMakerNow" d="M434.97 139.57c1.32-1.64 1.98-3.5 1.98-5.59 0-5.26-4.16-8.99-9.31-8.99l-22.35-.02c-8.99 0-13.6 6.02-13.6 11.94v4.49l21.36.02-11.95 16.86c-1.32 1.54-1.43 5.04.87 6.69 2.19 1.64 5.8 4.17 5.8 4.17.66.44 1.76.88 2.85.88 1.21 0 2.52-.44 3.51-1.86l2.08-2.74c5.15.99 8.99 5.81 8.98 11.07 0 6.25-4.83 11.62-11.3 11.61-5.26 0-9.75-3.51-12.59-7.68-.99-1.21-2.52-1.86-4.05-1.87-.99 0-1.98.22-2.74.88l-5.49 4.05c-2.19 1.64-2.96 4.27-1.32 7.01 5.69 8.77 15.77 14.15 26.18 14.16 15.34.01 28.28-12.58 28.3-28.14.01-10.85-6.12-20.39-15.87-25zm74.94 17.27c.02-16.33-11.92-30.7-28.79-30.71l-18.96-.02c-1.64 0-3.29.66-4.38 1.97-1.21 1.21-1.87 2.85-1.87 4.6l-.05 64.11c0 3.51 2.62 6.58 6.24 6.58l18.96.02c16.87.01 28.83-14.23 28.84-30.55zm-16.01 16.09c0 7.34-5.71 14.13-13.27 14.13l-8.76-.01.03-44.6 8.77.01c7.56 0 13.25 6.69 13.25 14.03zm64.85 27.45c.66 2.19 2.63 3.73 4.93 3.73l7.45.01c2.31 0 4.28-1.54 4.94-3.84l12.19-39.66 4.14 38.47c.22 2.52 2.3 4.39 4.71 4.39h7.56c1.31.01 2.41-.43 3.18-1.31.76-.98 1.2-2.19 1.1-3.61l-8.06-67.51c-.22-2.96-2.41-5.05-5.37-5.05l-8-.01c-2.3 0-4.38 1.53-5.04 3.73l-14.5 47-14.54-46.92c-.65-2.3-2.63-3.84-4.93-3.84h-8.87c-2.85-.01-5.05 2.07-5.27 5.03l-8.16 67.5c-.11 1.43.33 2.63 1.09 3.62.77.88 1.86 1.31 3.18 1.32h7.23c2.3 0 4.28-1.75 4.72-4.27l4.08-38.46zm103.95-70.82c-.66-2.3-2.63-3.84-4.93-3.84l-7.56-.01c-2.3 0-4.39 1.54-5.05 3.84l-20.98 67.92c-.11.44-.22.88-.22 1.54 0 2.52 1.97 4.49 4.38 4.49l6.79.01c2.3 0 4.28-1.53 5.05-3.94l3.84-13.04 19.62.02 3.93 13.04c.66 2.41 2.63 3.95 4.93 3.95h7.01c2.41.01 4.39-1.97 4.39-4.49 0-.65-.11-1.09-.22-1.53zm-3.76 41.09l-10.19-.01 5.16-17.64zm50.38 32.92c2.3 0 4.17-1.86 4.17-4.27l.02-26.19h.55l21.12 28.18c1.1 1.53 2.63 2.3 4.49 2.3l8.99.12c2.3 0 4.06-1.75 4.06-4.05 0-.88-.33-1.76-.88-2.52l-24.3-32.57 24.24-31.54c.55-.88.88-1.75.88-2.63.01-2.3-1.75-4.06-4.05-4.06l-8.76-.01c-1.87 0-3.51.77-4.61 2.3l-21.61 28.59h-.11l.02-26.52c0-2.52-1.86-4.39-4.16-4.39l-7.67-.01c-2.3 0-4.17 1.86-4.17 4.38l-.05 68.6c0 2.41 1.86 4.28 4.16 4.28zm94.73-60.86c2.3 0 4.16-1.97 4.17-4.38v-7.56c0-2.52-1.86-4.38-4.16-4.39l-32.98-.02c-1.65 0-3.29.65-4.39 1.97-1.2 1.2-1.86 2.85-1.86 4.6l-.06 64.11c0 3.5 2.63 6.57 6.25 6.58l32.98.02c2.3 0 4.17-1.86 4.17-4.38v-7.56c.01-2.41-1.86-4.38-4.16-4.39l-23.23-.01.01-15.78 16.77.01c2.3 0 4.17-1.86 4.17-4.27v-7.34c.01-2.42-1.86-4.28-4.16-4.28l-16.76-.01.01-12.94zm67.93 8.06c.01-13.26-10.28-24.34-23.65-24.35l-18.08-.01c-1.64-.01-3.29.65-4.38 1.96-1.21 1.21-1.87 2.85-1.87 4.61l-.05 66.29c0 2.52 1.86 4.39 4.16 4.39l7.67.01c2.3 0 4.17-1.86 4.17-4.38l.02-24.22h1.53l15.43 26.2c.99 1.54 2.41 2.42 4.27 2.42h7.89c2.41.01 4.28-1.86 4.28-4.38 0-.76-.22-1.64-.66-2.41l-14.66-24.01c8.44-3.83 13.93-12.48 13.93-22.12zm-24.21-8.24c4.93 0 8.11 3.51 8.11 8.33-.01 4.71-3.41 8.11-8.12 8.11l-7.78-.01.01-16.44z"/><path id="3DMakerNow" fill="#3a3e3d" aria-label="3DMakerNow" d="M928.49 201.22c1.09 1.64 2.63 2.52 4.38 2.52l8 .01c2.74 0 4.93-2.3 4.94-5.15l.05-67.72c0-2.52-1.75-4.38-4.05-4.39h-7.02c-2.3 0-4.16 1.86-4.16 4.38l-.04 40.98-23.96-42.86c-1.09-1.65-2.52-2.53-4.38-2.53h-7.89c-2.74-.01-4.93 2.29-4.94 5.14l-.05 67.73c0 2.52 1.86 4.38 4.16 4.38l6.9.01c2.41 0 4.17-1.86 4.17-4.38l.03-40.88zm91.1-46.83c.01-15.45-11.92-29.05-27.7-29.06-15.78-.02-27.74 13.56-27.75 29.02l-.02 21.69c-.01 15.45 11.82 29.16 27.71 29.18 15.89.01 27.73-13.68 27.74-29.13zm-16.02 21.68c0 6.47-4.94 12.82-11.73 12.82-6.69-.01-11.72-6.48-11.72-12.83l.02-21.7c.01-6.47 5.05-12.71 11.74-12.7 6.79 0 11.72 6.25 11.71 12.72zm117.63-49.43c-2.09-.01-3.95 1.53-4.5 3.61l-11.87 44.92-12.35-44.94c-.54-2.08-2.41-3.62-4.38-3.62l-7.56-.01c-2.08 0-3.95 1.53-4.49 3.62l-11.88 44.92-12.34-44.94c-.55-2.09-2.41-3.62-4.49-3.62l-7.45-.01c-2.31 0-4.17 1.97-4.17 4.27 0 .44.11.88.22 1.32l18.79 68.39c.55 1.98 2.3 3.51 4.38 3.51l9.21.01c2.19 0 4.05-1.42 4.6-3.61l11.32-41.96 11.15 41.98c.54 2.08 2.29 3.61 4.38 3.61l9.2.01c2.19 0 4.06-1.42 4.61-3.61l19.34-68.37a4.29 4.29 0 00-.55-3.83c-.76-.99-1.97-1.65-3.28-1.65z"/><path id="Es la hora de imprimir en 3D" fill="#757c7d" aria-label="Es la hora de imprimir en 3D" d="M420.17 279.49l.04-44.59 27.5.02-.01 5.2-21.77-.02-.01 13.98 18.91.01v5.2l-18.92-.01-.01 15.01 22.17.02-.01 5.2-27.89-.02zm44.14.82q-5.52-.01-8.25-2.87-2.73-2.93-2.72-7.15v-1.04q.06-.33.06-.39h5.59v.65q0 3.06 1.56 4.62 1.56 1.49 4.03 1.5 2.21 0 3.64-1.3 1.5-1.37 1.5-3.77 0-1.82-.91-2.99-.91-1.17-2.21-1.82-1.3-.72-3.64-1.57-2.86-.97-4.61-1.95-1.76-.98-2.99-2.86-1.23-1.96-1.23-5.08 0-4.48 2.86-7.08 2.93-2.66 7.81-2.66 4.61.01 7.21 2.74 2.6 2.67 2.6 6.63l-.07 1.24-5.53-.01v-.58q.01-2.28-1.1-3.78-1.1-1.56-3.64-1.56-2.53 0-3.57 1.43t-1.05 3.25q0 2.21 1.5 3.32 1.56 1.04 4.74 2.08 2.93 1.04 4.81 2.08 1.88.98 3.18 3 1.37 2.01 1.36 5.39 0 5.27-2.99 7.93-2.93 2.6-7.94 2.6zm31.6-.76l.04-47h5.33l-.04 47h-5.33zm19.76.8q-3.51-.01-6.24-2.09-2.73-2.08-2.72-7.54 0-6.57 4.42-8.97 4.49-2.47 12.88-2.46v-4.42q0-2.67-1.17-4.1-1.17-1.43-4.22-1.43-2.8 0-4.03 1.56-1.24 1.56-1.24 3.83v.78h-5.27q-.06-.39-.06-1.43 0-4.55 3-7.02 2.99-2.47 7.99-2.47 5.14.01 7.74 2.48 2.6 2.47 2.59 7.09l-.01 19.18q0 1.1.52 1.69.52.58 1.3.58h2.08l-.01 3.71q-1.43.78-3.51.78t-3.51-1.11q-1.36-1.17-1.88-3.12h-.33q-1.3 2.14-3.51 3.31-2.15 1.17-4.81 1.17zm1.24-4.75q1.75 0 3.38-.97t2.67-2.86q1.04-1.95 1.04-4.61v-3.12q-5.85-.01-8.77 1.35-2.93 1.3-2.93 5.01-.01 2.79 1.1 4.03 1.17 1.17 3.51 1.17zm35.94 4l.04-47.01 5.33.01-.01 16.38h.39q2.47-4.35 7.67-4.35 4.1.01 6.24 2.48 2.21 2.4 2.21 7.86l-.02 24.64h-5.33l.02-24.25q0-3.31-1.24-4.62-1.23-1.36-3.57-1.36-2.67-.01-4.55 2.53-1.83 2.53-1.83 6.82l-.02 20.87h-5.33zm40.57.81q-6.05-.01-9.16-4.36-3.06-4.43-3.05-13.53.01-9.1 3.07-13.45 3.12-4.42 9.17-4.42 6.04.01 9.09 4.43 3.12 4.36 3.11 13.46 0 9.1-3.13 13.52-3.06 4.35-9.1 4.35zm0-4.75q6.63.01 6.64-11.89v-2.47q.01-11.9-6.62-11.9-6.63-.01-6.64 11.89v2.47q-.01 11.9 6.62 11.9zm18.72 3.98l.03-34.19h4.03l.71 4.49h.39q.72-2.28 2.15-3.77 1.43-1.49 3.64-1.49 1.37 0 2.53.52v5.52h-1.75q-2.8 0-4.62 1.95-1.76 1.88-1.76 6.11l-.02 20.87-5.33-.01zm25.03.8q-3.51 0-6.24-2.08-2.73-2.09-2.73-7.55.01-6.56 4.43-8.96 4.49-2.47 12.88-2.46v-4.42q0-2.67-1.17-4.1-1.17-1.43-4.22-1.43-2.8-.01-4.03 1.55-1.24 1.56-1.24 3.84v.78l-5.27-.01q-.06-.39-.06-1.43 0-4.55 2.99-7.02 3-2.46 8-2.46 5.14 0 7.74 2.48 2.59 2.47 2.59 7.09l-.01 19.17q-.01 1.11.51 1.69.52.59 1.3.59h2.08v3.71q-1.43.78-3.51.77-2.08 0-3.51-1.1-1.36-1.18-1.88-3.13h-.33q-1.3 2.15-3.51 3.32-2.15 1.16-4.81 1.16zm1.24-4.74q1.75 0 3.38-.97 1.62-.98 2.67-2.86 1.04-1.95 1.04-4.62v-3.12q-5.85 0-8.78 1.36-2.92 1.3-2.92 5-.01 2.8 1.1 4.04 1.17 1.17 3.51 1.17zm45.24 4.78q-5.07 0-7.86-4.43-2.73-4.42-2.72-13.52 0-8.84 2.8-13.33 2.87-4.48 7.42-4.48 2.53.01 4.48 1.11 1.95 1.04 2.79 2.93h.33l.01-16.06 5.33.01-.03 47h-4.04l-.71-3.97h-.32q-1.24 2.34-3.19 3.57-1.95 1.17-4.29 1.17zm1.11-4.75q6.11.01 6.12-11.89v-2.21q.01-12.15-6.1-12.16-3.12 0-4.62 2.79-1.5 2.8-1.5 9.1v2.47q-.01 6.31 1.48 9.11 1.5 2.79 4.62 2.79zm31 4.77q-6.5 0-9.75-4.23-3.18-4.29-3.17-13.65.01-9.17 3.2-13.52 3.18-4.35 9.69-4.35 5.72 0 8.44 3.84 2.8 3.78 2.79 12.23v3.38l-18.53-.02q.06 5.98 1.81 8.78 1.82 2.8 5.66 2.8 2.6 0 4.16-2.08 1.62-2.08 1.63-5.59l5.26.01q0 5.72-3.12 9.1-3.06 3.31-8.07 3.3zm-7.26-21.06l12.87.01q0-4.88-1.43-7.42-1.42-2.53-4.22-2.53-3.44-.01-5.2 2.46-1.69 2.41-2.02 7.48zm40.81 20.31l.02-34.19h5.33l-.02 34.2-5.33-.01zm-.1-40.82v-6.18h5.53l-.01 6.18h-5.52zm14.07 40.83l.03-34.19h4.03l.71 3.97h.39q2.54-4.75 7.81-4.74 5.52 0 7.27 4.94 1.31-2.4 3.52-3.63 2.27-1.3 4.81-1.3 8.06.01 8.05 10.34l-.02 24.64h-5.33l.02-24.25q0-3.32-1.17-4.62-1.16-1.36-3.25-1.37-2.47 0-4.16 2.54-1.69 2.53-1.69 6.82l-.02 20.87-5.33-.01.02-24.24q0-3.32-1.17-4.62-1.17-1.37-3.25-1.37-2.47 0-4.22 2.53-1.7 2.54-1.7 6.83l-.02 20.87-5.33-.01zm44.39 11.28l.04-45.44 4.03.01.71 3.96h.33q1.23-2.34 3.19-3.51 1.95-1.23 4.29-1.23 5.07.01 7.79 4.43 2.8 4.42 2.79 13.52-.01 8.84-2.87 13.33-2.8 4.48-7.35 4.48-2.47 0-4.49-.98-1.95-1.04-2.79-2.8h-.32l-.02 14.24-5.33-.01zm11.46-15.2q3.12 0 4.61-2.79 1.5-2.8 1.51-9.1v-2.47q0-6.31-1.49-9.1-1.49-2.8-4.61-2.8-6.11-.01-6.12 11.89v2.47q-.01 11.9 6.1 11.9zm18.2 3.98l.02-34.19h4.03l.72 4.49h.39q.71-2.28 2.14-3.77 1.43-1.5 3.65-1.5 1.36.01 2.53.53v5.52h-1.76q-2.79 0-4.62 1.95-1.75 1.88-1.76 6.11l-.01 20.86h-5.33zm18.59.02l.03-34.2 5.33.01-.03 34.19h-5.33zm-.1-40.83l.01-6.18 5.52.01v6.17h-5.53zm14.07 40.84l.03-34.2 4.03.01.71 3.96h.39q2.54-4.74 7.81-4.74 5.52.01 7.28 4.95 1.3-2.41 3.51-3.64 2.28-1.3 4.81-1.3 8.06.01 8.05 10.35l-.02 24.64-5.33-.01.02-24.25q.01-3.31-1.16-4.61-1.17-1.37-3.25-1.37-2.47 0-4.17 2.53-1.69 2.53-1.69 6.83l-.02 20.86h-5.33l.02-24.25q0-3.31-1.17-4.62-1.16-1.36-3.25-1.36-2.47-.01-4.22 2.53-1.69 2.53-1.7 6.82l-.01 20.87h-5.34zm45.25.03l.03-34.19h5.33l-.03 34.2-5.33-.01zm-.1-40.82l.01-6.18 5.52.01v6.17h-5.53zm14.08 40.83l.02-34.19h4.03l.72 4.49h.39q.71-2.28 2.14-3.77 1.44-1.49 3.65-1.49 1.36 0 2.53.52v5.53l-1.76-.01q-2.79 0-4.62 1.95-1.75 1.88-1.76 6.11l-.01 20.87-5.33-.01zm44.33.82q-6.5-.01-9.75-4.23-3.18-4.3-3.17-13.66.01-9.17 3.19-13.52 3.19-4.35 9.69-4.35 5.72.01 8.45 3.85 2.79 3.77 2.79 12.22l-.01 3.38-18.52-.01q.06 5.98 1.81 8.77 1.82 2.8 5.65 2.8 2.6.01 4.17-2.07 1.62-2.08 1.63-5.59h5.26q0 5.72-3.13 9.1-3.05 3.31-8.06 3.31zm-7.26-21.07l12.87.01q0-4.88-1.43-7.41-1.42-2.54-4.22-2.54-3.45 0-5.2 2.47-1.69 2.4-2.02 7.47zm25.14 20.3l.03-34.19h4.03l.71 3.97h.39q2.67-4.75 8.26-4.74 4.09 0 6.24 2.47 2.2 2.41 2.2 7.87l-.02 24.64h-5.33l.02-24.25q0-3.32-1.23-4.62-1.24-1.37-3.58-1.37-2.66 0-4.55 2.53-1.82 2.54-1.82 6.83l-.02 20.87-5.33-.01zm55.38.83q-5.98-.01-9.29-3.59-3.25-3.64-3.24-9.82v-.52l5.46.01v.71q0 4.16 1.68 6.31 1.76 2.15 5.01 2.15 3.31 0 5.2-2.08 1.95-2.07 1.96-6.3 0-7.93-7.34-7.94h-3.71v-4.75l3.84.01q2.73 0 4.55-2.01 1.89-2.02 1.89-5.79 0-3.9-1.75-5.85-1.69-1.95-4.35-1.95-2.8-.01-4.49 2.07-1.69 2.02-1.7 5.98v.59l-5.46-.01v-1.17q.01-3.64 1.44-6.37 1.5-2.79 4.1-4.28 2.67-1.56 6.05-1.56 5.33 0 8.44 3.19 3.19 3.19 3.18 9.04 0 3.71-1.56 6.11-1.5 2.34-4.23 3.9v.26q2.99 1.11 4.74 3.9 1.82 2.8 1.82 7.02-.01 5.86-3.39 9.3-3.39 3.44-8.85 3.44zm19.38-.77l.03-44.59 13.85.01q7.99 0 12.41 5.53 4.48 5.53 4.47 16.13-.01 11.31-4.43 17.16-4.43 5.78-12.49 5.77l-13.84-.01zm5.72-5.19h7.61q5.39.01 8.39-4.02 3.05-4.1 3.06-12.09v-3.25q.01-7.28-3.04-11.06-2.99-3.77-8.39-3.77l-7.6-.01-.03 34.2z"/><path id="Shape 2" d="M4 102l48 29 1 137 118 69v56L4 296V102z" fill="#343638"/><path id="Shape 2" d="M174 337v56l168-97V103l-49 28-1 138-118 68z" fill="#3a3e3d"/><path id="Shape 2" d="M174 63v56l67 40 1 78 48 28V131L174 63z" fill="#51bfa9"/><path id="Shape 2" d="M55 131v133l48-27v-79.01L171 119V64L55 131z" fill="#25605c"/><path id="Shape 1" d="M5 100l48 28 119-68 119 68 49-28L173 3 5 100z" fill="#757c7d"/><path id="Shape 2" d="M56 266l49-28 68 41 68-40 48 28-117 68-116-69z" fill="#35887f"/></svg>