<svg xmlns="http://www.w3.org/2000/svg" height="512" viewBox="-56 0 511 512" width="512"><path d="M385.035 55.168c0-22.094-18.078-40.168-40.168-40.168h-241C81.777 15 63.7 33.074 63.7 55.168v56.23h321.336zm0 0" fill="#00a79e" data-original="#FFD400" class="active-path" data-old_color="#FFD400"/><path d="M385.035 55.168c0-22.094-18.078-40.168-40.168-40.168H207.234v96.398h177.801zm0 0" fill="#49b2a1" data-original="#FF9F04" data-old_color="#49b2a1"/><path d="M344.867 0h-241C73.445 0 48.7 24.75 48.7 55.168v176.16L5.9 266.996A14.995 14.995 0 0 0 .5 278.52v178.316C.5 487.254 25.246 512 55.664 512h289.2c30.421 0 55.167-24.746 55.167-55.164V55.168C400.035 24.75 375.285 0 344.867 0zM271.5 96.398V30h34.266v66.398zm-30 0h-34.27V30h34.27zm-64.266 0H142.97V30h34.265zm192.801-41.23v41.23h-34.27V30h9.102c13.875 0 25.168 11.29 25.168 25.168zm-291.336 0C78.7 41.289 89.99 30 103.867 30h9.102v66.398h-34.27zm0 0" fill="#466288" data-original="#3D5959" data-old_color="#3D5959"/><path d="M344.867 0H207.234v30H241.5v66.398h-34.266V512h137.633c30.418 0 55.168-24.746 55.168-55.164V55.168C400.035 24.75 375.285 0 344.867 0zm-39.101 96.398H271.5V30h34.266zm64.27 0h-34.27V30h9.101c13.875 0 25.168 11.29 25.168 25.168zm0 0" fill="#243145" data-original="#293939" data-old_color="#293939"/><path d="M385.035 415.602H15.5c-8.285 0-15-6.72-15-15 0-8.286 6.715-15 15-15h369.531c8.285 0 15 6.714 15 15 .004 8.28-6.715 15-14.996 15zm0 0" fill="#00a79e" data-original="#C5E1E6" data-old_color="#00a79e"/><path d="M385.035 385.602h-177.8v30h177.8c8.281 0 15-6.72 15-15 0-8.286-6.719-15-15-15zm0 0" fill="#49b2a1" data-original="#8DB9C4" data-old_color="#49b2a1"/></svg>