<svg xmlns="http://www.w3.org/2000/svg" width="512" height="512"><path data-original="#FFDE55" fill="#ffde55" d="M215.5 0h30v116h-30z"/><path d="M125.5 116h-30V83c0-24.813 20.187-45 45-45 8.271 0 15-6.729 15-15V0h30v23c0 24.813-20.187 45-45 45-8.271 0-15 6.729-15 15v33z" data-original="#8AC0FF" fill="#8ac0ff"/><path d="M365.5 116h-30V83c0-8.271-6.729-15-15-15-24.813 0-45-20.187-45-45V0h30v23c0 8.271 6.729 15 15 15 24.813 0 45 20.187 45 45v33z" data-original="#EA348B" fill="#ea348b"/><path data-original="#FF9811" fill="#ff9811" d="M230.5 0h15v116h-15z"/><path d="M275.5 191h-90v-90h90v90z" data-original="#243145" fill="#243145"/><path d="M395.5 191h-90v-90h90v90z" data-original="#121924" fill="#121924"/><path d="M155.5 191h-90v-90h90v90z" data-original="#243145" fill="#243145"/><path data-original="#121924" fill="#121924" d="M230.5 101h45v90h-45z"/><path d="M486.5 482h-196c-41.355 0-75-33.645-75-75v-51h30v51c0 24.813 20.187 45 45 45h196v30z" data-original="#FFDE55" fill="#ffde55"/><path d="M245.5 407v-51h-15v52.133c0 32.033 25.967 58 58 58h198V452h-196c-24.853 0-45-20.147-45-45z" data-original="#FF9811" fill="#ff9811"/><path d="M486.5 512h-276c-63.411 0-115-51.589-115-115v-41h30v41c0 46.869 38.131 85 85 85h276v30z" data-original="#8AC0FF" fill="#8ac0ff"/><path d="M486.5 452h-106c-24.813 0-45-20.187-45-45v-51h30v51c0 8.271 6.729 15 15 15h106v30z" data-original="#EA348B" fill="#ea348b"/><path d="M143.509 371H77.491L63.205 271h94.59l-14.286 100z" data-original="#466288" fill="#466288"/><path d="M383.51 371h-66.02l-14.285-100h94.59L383.51 371z" data-original="#243145" fill="#243145"/><path d="M263.51 371h-66.019l-14.286-100h94.59L263.51 371z" data-original="#466288" fill="#466288"/><path data-original="#243145" fill="#243145" d="M230.5 371h33.01l14.285-100H230.5z"/><path d="M435.5 301h-410V161h410v140z" data-original="#DAE0E7" fill="#dae0e7"/><path data-original="#BEC8D6" fill="#bec8d6" d="M230.5 161h205v140h-205z"/><g fill="#a3b1c4"><path data-original="#A3B1C4" d="M215.5 231h30v70h-30zM155.5 231h30v70h-30z"/></g><g fill="#8799b3"><path data-original="#8799B3" d="M275.5 231h30v70h-30zM335.5 231h30v70h-30z"/></g><path data-original="#A3B1C4" fill="#a3b1c4" d="M95.5 231h30v70h-30z"/><path data-original="#8799B3" fill="#8799b3" d="M230.5 231h15v70h-15z"/></svg>