<svg xmlns="http://www.w3.org/2000/svg" width="512" height="512"><path d="M512 512H175c-30.327 0-55-24.673-55-55v-38h30v38c0 13.785 11.215 25 25 25h337v30z" data-original="#E4187A" class="active-path" data-old_color="#009c9e" fill="#009c9e"/><path d="M135 434c-22.056 0-40-17.944-40-40v-40h80v40c0 22.056-17.944 40-40 40z" data-original="#A3B1C4" fill="#a3b1c4"/><path d="M135 354v80c22.056 0 40-17.944 40-40v-40h-40z" data-original="#8799B3" fill="#8799b3"/><path d="M180.812 384H89.188l-30-90h151.623l-29.999 90z" data-original="#466288" fill="#466288"/><path data-original="#243145" fill="#243145" d="M135 384h45.812l30-90H135z"/><path d="M100 139H70V45.897C70 20.589 90.589 0 115.897 0h2.205C143.411 0 164 20.589 164 45.897 164 55.328 171.672 63 181.103 63H214v30h-32.897C155.13 93 134 71.87 134 45.897 134 37.131 126.869 30 118.103 30h-2.205C107.131 30 100 37.131 100 45.897V139z" data-original="#E4187A" class="active-path" data-old_color="#009c9e" fill="#009c9e"/><path d="M137.295 224H32.705l14.286-100h76.019l14.285 100z" data-original="#466288" fill="#466288"/><path d="M270 324H0V194h270v130z" data-original="#A3B1C4" fill="#a3b1c4"/><path data-original="#8799B3" fill="#8799b3" d="M135 194h135v130H135z"/><path d="M337 350c-96.495 0-175-78.505-175-175S240.505 0 337 0s175 78.505 175 175-78.505 175-175 175z" data-original="#FF728B" data-old_color="#49b2a1" fill="#49b2a1"/><path d="M337 0v350c96.495 0 175-78.505 175-175S433.495 0 337 0z" data-original="#EA348B" data-old_color="#00a79e" fill="#00a79e"/><path d="M337 230c-30.327 0-55-24.673-55-55s24.673-55 55-55 55 24.673 55 55-24.673 55-55 55z" data-original="#E4187A" class="active-path" data-old_color="#009c9e" fill="#009c9e"/><path d="M392 175c0-30.327-24.673-55-55-55v110c30.327 0 55-24.673 55-55z" data-original="#880E48" data-old_color="#005e59" fill="#005e59"/><path data-original="#E4187A" class="active-path" data-old_color="#009c9e" fill="#009c9e" d="M322 60h30v30h-30zM322 260h30v30h-30zM222 160h30v30h-30zM266.288 224.499l21.213 21.213-21.213 21.213-21.213-21.213zM266.289 83.078l21.213 21.213-21.213 21.213-21.213-21.213z"/><g><path data-original="#880E48" data-old_color="#005e59" fill="#005e59" d="M422 160h30v30h-30zM407.71 125.502l-21.213-21.213 21.213-21.213 21.213 21.213zM407.709 224.5l21.213 21.213-21.213 21.213-21.213-21.213zM337 60h15v30h-15zM337 260h15v30h-15z"/></g></svg>