<svg xmlns="http://www.w3.org/2000/svg" width="512" height="512"><path d="M512 477H322V117h190v360z" data-original="#466288" fill="#466288"/><path data-original="#243145" fill="#243145" d="M417 117h95v360h-95z"/><path data-original="#8799B3" fill="#8799b3" d="M415 297h37v30h-37zM415 237h37v30h-37zM415 177h37v30h-37z"/><path d="M270 477H160V347h110v130z" data-original="#466288" fill="#466288"/><path d="M270 477h-55V347h55v130z" data-original="#243145" fill="#243145"/><path d="M430 387H0V35h430v352z" data-original="#DAE0E7" fill="#dae0e7"/><path data-original="#BEC8D6" fill="#bec8d6" d="M215 35h215v352H215z"/><path d="M370 327H60V95h310v232z" data-original="#FF728B" data-old_color="#49b2a1" fill="#49b2a1"/><path data-original="#DAE0E7" fill="#dae0e7" d="M135 447h160v30H135z"/><path data-original="#BEC8D6" fill="#bec8d6" d="M215 447h80v30h-80z"/><path d="M370 327H215V95h155v232z" data-original="#EA348B" data-old_color="#00a79e" fill="#00a79e"/><path d="M290 163.224l-75-38.043-75 38.043v96.047l75 37.5 75-37.5v-96.047zm-75-4.405l41.112 20.854L215 200.229l-41.112-20.556L215 158.819zm45 81.91l-45 22.5-45-22.5V211.27l45 22.5 45-22.5v29.459z" data-original="#E4187A" class="active-path" data-old_color="#009c9e" fill="#009c9e"/><path data-original="#880E48" data-old_color="#005e59" fill="#005e59" d="M256.112 179.673L215 200.229v33.542l45-22.5v29.458l-45 22.5v33.542l75-37.5v-96.047l-75-38.043v33.638z"/></svg>