<svg version="1.1" id="Capa_1" xmlns="http://www.w3.org/2000/svg" x="0" y="0" viewBox="-41 164.9 512 512" xml:space="preserve"><style>.st0{fill:#466288}.st1{fill:#243145}.st3{fill:#009c9e}.st4{fill:#a3b1c4}.st7{fill:#8799b3}.st8{fill:#5c7373}</style><path class="st0" d="M27.1 569.5h335.8v23.1H27.1v-23.1z"/><path class="st1" d="M195.1 569.5h167.8v23.1H195.1v-23.1z"/><path d="M14.8 590.2H373v36.3H14.8v-36.3zm-50.5-414.4h458.5v36.3H-35.7v-36.3z" fill="#49b2a1"/><path class="st3" d="M194.5 175.8h228.3v36.3H194.5v-36.3z"/><path class="st4" d="M-35.7 411.1h458.5v25.2H-35.7v-25.2z"/><path class="st3" d="M-35.4 211.7H9.3v414.8h-44.7V211.7z"/><path d="M195.1 590.2H373v36.3H195.1v-36.3z" fill="#005e59"/><path d="M378.5 211.7h44.6v414.8h-44.6V211.7z" fill="#00a79e"/><g id="Capa_3"><path class="st4" d="M194.8 468.9c-5.7 0-10.3-4.6-10.3-10.3v-10.3h20.6v10.3c0 5.7-4.7 10.3-10.3 10.3z"/><path class="st7" d="M194.8 448.3v20.6c5.7 0 10.3-4.6 10.3-10.3v-10.3h-10.3z"/><path class="st0" d="M206.5 456h-23.6l-7.8-23.2h39l-7.6 23.2z"/><path class="st1" d="M194.8 456h11.8l7.8-23.2h-19.6V456z"/><path class="st0" d="M195.4 414.8h-27l3.7-25.8h19.6l3.7 25.8z"/><path class="st4" d="M229.5 440.5H160V407h69.5v33.5z"/><path class="st7" d="M194.8 407.1h34.8v33.5h-34.8v-33.5z"/></g><path class="st8" d="M-12 645.8h396v9H-12z"/><path class="st8" d="M18.9 667.8l-52-18.5 52.2-18.1zM370 631l52 18.5-52.2 18.1zM443.3 210.8h9v389h-9z"/><path class="st8" d="M465.3 572.4l-18.5 52.1-18-52.2zM428.6 228.4l18.4-52 18.1 52.1z"/></svg>