<svg xmlns="http://www.w3.org/2000/svg" viewBox="-41 164.9 512 512"><style>.st0{fill:#466288}.st1{fill:#243145}.st3{fill:#009c9e}.st4{fill:#a3b1c4}.st7{fill:#8799b3}</style><g id="Capa_1"><path class="st0" d="M56.9 540.9h318v21.9h-318v-21.9z"/><path class="st1" d="M216 540.9h158.9v21.9H216v-21.9z"/><path d="M45.3 560.5h339.2v34.4H45.3v-34.4zM-2.5 168.1h434.2v34.4H-2.5v-34.4z" fill="#49b2a1"/><path class="st3" d="M215.5 168.1h216.2v34.4H215.5v-34.4z"/><path class="st4" d="M-2.5 390.9h434.2v23.9H-2.5v-23.9z"/><path class="st3" d="M-2.3 202.1H40v392.8H-2.3V202.1z"/><path d="M216 560.5h168.4v34.4H216v-34.4z" fill="#005e59"/><path d="M389.7 202.1h42.2v392.8h-42.2V202.1z" fill="#00a79e"/><g id="Capa_3"><path class="st4" d="M215.7 445.6c-5.4 0-9.8-4.4-9.8-9.8V426h19.5v9.8c0 5.4-4.3 9.8-9.7 9.8z"/><path class="st7" d="M215.7 426.1v19.5c5.4 0 9.8-4.4 9.8-9.8V426l-9.8.1z"/><path class="st0" d="M226.8 433.5h-22.4l-7.3-21.9h37l-7.3 21.9z"/><path class="st1" d="M215.7 433.5h11.2l7.3-21.9h-18.5v21.9z"/><path class="st0" d="M216.3 394.4h-25.5l3.5-24.4h18.5l3.5 24.4z"/><path class="st4" d="M248.6 418.8h-65.8V387h65.8v31.8z"/><path class="st7" d="M215.7 387.1h33v31.7h-33v-31.7z"/></g></g><g id="Capa_2"><path fill="#33454e" d="M-11.4 603.9h457.5v12.4H-11.4z"/><path fill="#3f5360" d="M-34.4 616.9h502.5v60H-34.4z"/><path fill="#5c7373" d="M-34.4 595.9h502.5v12.4H-34.4z"/></g></svg>