<svg xmlns="http://www.w3.org/2000/svg" viewBox="-41 164.9 512 512"><style>.st2{fill:#d8d0bc}.st4{fill:#f1f2f2}.st5{fill:#3a4d57}.st6{fill:#5c7373}.st7{fill:#33454e}</style><g id="Capa_3"><path class="st6" d="M156.2 537.3v92.5c0 2.2 1.8 4 4 4h110.5c2.2 0 4-1.8 4-4v-92.5H156.2z"/><path class="st7" d="M214 540.1v93.6h57.9c1.6 0 2.8-1.3 2.8-2.8v-90.8c0-1.6-1.3-2.8-2.8-2.8h-55.1c-1.5 0-2.8 1.2-2.8 2.8z"/><path d="M294.5 324.2h-39.6v-134c0-10.9 8.9-19.8 19.8-19.8s19.8 8.9 19.8 19.8v134z" fill="#eac17e"/><path d="M175.5 324.2h-39.6v-134c0-10.9 8.9-19.8 19.8-19.8s19.8 8.9 19.8 19.8v134z" fill="#eecf99"/><path class="st5" d="M197.7 633.8h35.5v38.3h-35.5z"/><linearGradient id="SVGID_2_" gradientUnits="userSpaceOnUse" x1="280.686" y1="228.841" x2="280.686" y2="439.555" gradientTransform="rotate(-90 314.47 433.198)"><stop offset="0" stop-color="#3a4d57"/><stop offset="1" stop-color="#32434b"/></linearGradient><path d="M110.1 396.7v132.5c0 4.4 3.6 8 8 8h194.7c4.4 0 8-3.6 8-8V396.7H110.1z" fill="url(#SVGID_2_)"/><path class="st6" d="M79.4 324.2h272.2v72.6H79.4z"/><path class="st7" d="M214 324.2h137.6v72.6H214z"/><path class="st6" d="M260.3 503.3c0-.5.1-1 .1-1.5v-71.1h-29.5v72.6h29.4zm60.5 0c0-.5.1-1 .1-1.5v-71.1h-29.5v72.6h29.4zm-210.7 0h29.4c0-.5.1-1 .1-1.5v-71.1h-29.5v72.6zm89.8 0c0-.5.1-1 .1-1.5v-71.1h-29.5v72.6h29.4z"/><path class="st4" d="M110.1 396.7h210.7v15.6H110.1zM282 552.8l2.7-15.5H146.2l2.7 15.5z"/></g></svg>