<svg xmlns="http://www.w3.org/2000/svg" width="512" height="512"><path d="M317.224 512H194.776l-38.823-132h200.094l-38.823 132z" data-original="#466288" fill="#466288"/><path data-original="#243145" fill="#243145" d="M356.047 380H256v132h61.224z"/><path d="M467 410H45c-24.813 0-45-20.187-45-45V45C0 20.187 20.187 0 45 0h422c24.813 0 45 20.187 45 45v320c0 24.813-20.187 45-45 45z" data-original="#DAE0E7" fill="#dae0e7"/><path d="M467 0H256v410h211c24.813 0 45-20.187 45-45V45c0-24.813-20.187-45-45-45z" data-original="#BEC8D6" fill="#bec8d6"/><path d="M452 350H60V60h392v290z" data-original="#A3B1C4" fill="#a3b1c4"/><path data-original="#8799B3" fill="#8799b3" d="M256 60h196v290H256z"/><path data-original="#DAE0E7" fill="#dae0e7" d="M99 482h314v30H99z"/><path d="M324 290c-38.767 0-68-19.346-68-45v-80h136v80c0 25.654-29.233 45-68 45z" data-original="#E4187A" data-old_color="#00a79e" fill="#00a79e"/><path data-original="#FFFFFF" fill="#fff" d="M145.608 285.607l-21.213-21.213 56.002-56.001 21.213 21.213z"/><circle cx="135" cy="140" r="15" data-original="#FFFFFF" fill="#fff"/><path data-original="#DAE0E7" fill="#dae0e7" d="M225 290H120V185h30v75h75z"/><path d="M324 290c38.767 0 68-19.346 68-45v-80h-68v125z" data-original="#880E48" data-old_color="#005e59" fill="#005e59"/><path d="M324 210c-38.767 0-68-19.346-68-45s29.233-45 68-45 68 19.346 68 45-29.233 45-68 45z" data-original="#FF728B" data-old_color="#49b2a1" fill="#49b2a1"/><path d="M324 120v90c38.767 0 68-19.346 68-45s-29.233-45-68-45z" data-original="#EA348B" class="active-path" data-old_color="#009c9e" fill="#009c9e"/><path data-original="#BEC8D6" fill="#bec8d6" d="M256 482h157v30H256z"/></svg>