<svg xmlns="http://www.w3.org/2000/svg" width="512" height="512"><path d="M437 512H207v-90h230v90z" data-original="#466288" fill="#466288"/><path data-original="#243145" fill="#243145" d="M322 422h115v90H322z"/><path d="M512 452H132V142h380v310z" data-original="#FF728B" class="active-path" data-old_color="#49b2a1" fill="#49b2a1"/><path data-original="#EA348B" data-old_color="#00a79e" fill="#00a79e" d="M322 142h190v310H322z"/><path d="M423.213 392H220.787L192 363.213V230.787L220.787 202h202.427L452 230.787v132.426L423.213 392z" data-original="#FFFFFF" fill="#fff"/><path data-original="#DAE0E7" fill="#dae0e7" d="M322 202v190h101.213L452 363.213V230.787L423.213 202z"/><path d="M367 292h-90v-90h90v90z" data-original="#E4187A" data-old_color="#009c9e" fill="#009c9e"/><path data-original="#880E48" data-old_color="#005e59" fill="#005e59" d="M322 202h45v90h-45z"/><path d="M145 290C65.047 290 0 224.953 0 145S65.047 0 145 0s145 65.047 145 145-65.047 145-145 145z" data-original="#DAE0E7" fill="#dae0e7"/><path d="M145 0v290c79.953 0 145-65.047 145-145S224.953 0 145 0z" data-original="#BEC8D6" fill="#bec8d6"/><path data-original="#466288" fill="#466288" d="M144.645 165.187l-69.88-65.221 20.47-21.932 50.12 46.779 35.802-31.132 19.686 22.638z"/><g fill="#a3b1c4"><circle cx="145" cy="75" r="15" data-original="#A3B1C4"/><circle cx="145" cy="215" r="15" data-original="#A3B1C4"/><circle cx="75" cy="145" r="15" data-original="#A3B1C4"/></g><path data-original="#243145" fill="#243145" d="M145 124.482v40.396l55.843-48.559-19.686-22.638-35.802 31.132z"/><circle cx="215" cy="145" r="15" data-original="#8799B3" fill="#8799b3"/><path d="M160 75c0-8.284-6.716-15-15-15v30c8.284 0 15-6.716 15-15zM160 215c0-8.284-6.716-15-15-15v30c8.284 0 15-6.716 15-15z" data-original="#8799B3" fill="#8799b3"/></svg>