<svg xmlns="http://www.w3.org/2000/svg" width="512" height="512"><path d="M475.027 114.881L256 0 36.973 114.881v288.437L256 512l219.027-108.682V114.881z" data-original="#FF728B" data-old_color="#49b2a1" fill="#49b2a1"/><path data-original="#EA348B" class="active-path" data-old_color="#009c9e" fill="#009c9e" d="M256 0v512l219.027-108.682V114.881z"/><path d="M256 512L36.973 403.318V114.881L256 224.138l219.027-109.257v288.437L256 512z" data-original="#E4187A" data-old_color="#00a79e" fill="#00a79e"/><path data-original="#880E48" data-old_color="#005e59" fill="#005e59" d="M475.027 403.318V114.881L256 224.138V512z"/><path d="M391.016 458.994H120.984V168.745l68.795-68.795h201.237v359.044z" data-original="#DAE0E7" fill="#dae0e7"/><path data-original="#243145" fill="#243145" d="M120.984 199.962h100.012V99.95h-31.217l-68.795 68.795z"/><path data-original="#BEC8D6" fill="#bec8d6" d="M256 458.994h107.612l27.404-13.695V99.95H256z"/><path d="M331.009 250.192L256 212.145l-75.009 38.048v106.059L256 393.756l75.009-37.505V250.192zM256 245.787l41.117 20.857L256 287.202l-41.117-20.559L256 245.787zm45.005 91.921L256 360.211l-45.005-22.503v-39.464L256 320.747l45.005-22.503v39.464z" data-original="#A3B1C4" fill="#a3b1c4"/><path data-original="#8799B3" fill="#8799b3" d="M297.117 266.643L256 287.202v33.545l45.005-22.503v39.464L256 360.211v33.545l75.009-37.505V250.192L256 212.145v33.642z"/></svg>